<svg width="19" height="12" viewBox="0 0 19 12" xmlns="http://www.w3.org/2000/svg">
<path d="M9.33325 0.63501C5.89407 0.63501 2.77523 2.51662 0.473852 5.57285C0.28606 5.82324 0.28606 6.17305 0.473852 6.42344C2.77523 9.48336 5.89407 11.365 9.33325 11.365C12.7724 11.365 15.8913 9.48336 18.1927 6.42713C18.3804 6.17674 18.3804 5.82693 18.1927 5.57654C15.8913 2.51662 12.7724 0.63501 9.33325 0.63501ZM9.57996 9.77794C7.29699 9.92154 5.4117 8.03993 5.5553 5.75328C5.67313 3.86799 7.20125 2.33987 9.08654 2.22204C11.3695 2.07844 13.2548 3.96005 13.1112 6.2467C12.9897 8.12831 11.4616 9.65642 9.57996 9.77794ZM9.46581 8.03257C8.23595 8.1099 7.21966 7.09729 7.30067 5.86743C7.36327 4.85114 8.18808 4.03001 9.20438 3.96373C10.4342 3.8864 11.4505 4.89901 11.3695 6.12887C11.3032 7.14884 10.4784 7.96997 9.46581 8.03257Z" fill="currentColor"/>
</svg>
