<svg width="16" height="15" viewBox="0 0 16 15" fill="none" xmlns="http://www.w3.org/2000/svg">
<path d="M7.78369 2.33412L8.1665 2.78971L8.54931 2.33412C9.25002 1.5002 10.3051 1 11.4346 1C13.5026 1 15.1665 2.64293 15.1665 4.63796C15.1665 6.23063 14.1856 8.1775 12.0635 10.4381C10.4404 12.167 8.66956 13.51 8.16745 13.8789C8.16744 13.8789 8.16743 13.8789 8.16742 13.8789L8.16643 13.8796L8.16539 13.8788C8.16539 13.8788 8.16539 13.8788 8.16539 13.8788C7.66333 13.51 5.8925 12.167 4.2694 10.438C2.14733 8.17744 1.1665 6.2306 1.1665 4.63796C1.1665 2.64293 2.83044 1 4.89842 1C6.02792 1 7.08299 1.50017 7.78369 2.33412Z" stroke="currentColor"/>
</svg>
