<svg width="18" height="18" viewBox="0 0 18 18" xmlns="http://www.w3.org/2000/svg">
<path d="M17.6977 8.49244L9.62167 1.13364C9.26719 0.810586 8.73264 0.810621 8.3783 1.1336L0.302274 8.49248C0.0183179 8.75123 -0.0754787 9.1499 0.0632474 9.50811C0.202009 9.86631 0.539859 10.0977 0.92401 10.0977H2.21389V17.4707C2.21389 17.763 2.45091 18.0001 2.74323 18.0001H7.16988C7.46221 18.0001 7.69923 17.7631 7.69923 17.4707V12.9941H10.3009V17.4708C10.3009 17.7631 10.5379 18.0001 10.8302 18.0001H15.2566C15.549 18.0001 15.786 17.7631 15.786 17.4708V10.0977H17.0761C17.4602 10.0977 17.7981 9.86628 17.9369 9.50811C18.0754 9.14986 17.9816 8.75123 17.6977 8.49244ZM15.6477 1.94796H12.0928L16.1771 5.66171V2.47727C16.1771 2.18494 15.9401 1.94796 15.6477 1.94796Z" fill="currentColor"/>
</svg>
