<svg width="16" height="20" viewBox="0 0 16 20" xmlns="http://www.w3.org/2000/svg">
<path d="M4.54723 12.4785C4.37703 12.4785 4.26233 12.4952 4.20312 12.5118V13.6015C4.27343 13.6181 4.3613 13.6227 4.48247 13.6227C4.92555 13.6227 5.19843 13.3989 5.19843 13.0215C5.19843 12.682 4.96348 12.4785 4.54723 12.4785ZM7.7727 12.4896C7.5877 12.4896 7.46745 12.5063 7.39623 12.5229V14.9372C7.46745 14.9538 7.58215 14.9538 7.68575 14.9538C8.44148 14.9594 8.93358 14.5431 8.93358 13.6625C8.93913 12.8948 8.4905 12.4896 7.7727 12.4896Z" fill="currentColor"/>
<path d="M9.85011 0.75H2.4501C1.95945 0.75 1.48889 0.94491 1.14195 1.29185C0.795008 1.63879 0.600098 2.10935 0.600098 2.6V17.4C0.600098 17.8906 0.795008 18.3612 1.14195 18.7081C1.48889 19.0551 1.95945 19.25 2.4501 19.25H13.5501C14.0408 19.25 14.5113 19.0551 14.8583 18.7081C15.2052 18.3612 15.4001 17.8906 15.4001 17.4V6.3L9.85011 0.75ZM5.68575 13.8758C5.39993 14.144 4.97813 14.2643 4.48695 14.2643C4.39171 14.2653 4.29652 14.2597 4.20205 14.2476V15.5666H3.3751V11.9258C3.74788 11.8703 4.12528 11.8444 4.50268 11.85C5.0179 11.85 5.3842 11.9481 5.63118 12.1451C5.86613 12.3319 6.02523 12.6381 6.02523 12.9988C6.0243 13.3615 5.90405 13.6676 5.68575 13.8758ZM9.20723 15.1291C8.81873 15.452 8.22765 15.6055 7.50523 15.6055C7.07233 15.6055 6.76615 15.5778 6.55803 15.55V11.9268C6.93136 11.8723 7.30833 11.8466 7.6856 11.85C8.38583 11.85 8.84093 11.9758 9.19613 12.2441C9.58001 12.5289 9.82051 12.9831 9.82051 13.6353C9.82051 14.341 9.56243 14.8285 9.20723 15.1291ZM12.6251 12.5623H11.208V13.4049H12.5326V14.0839H11.208V15.5676H10.37V11.8777H12.6251V12.5623ZM9.85011 7.225H8.92511V2.6L13.5501 7.225H9.85011Z" fill="currentColor"/>
</svg>
