<svg width="12" height="12" viewBox="0 0 12 12" xmlns="http://www.w3.org/2000/svg">
<path fill-rule="evenodd" clip-rule="evenodd" d="M11.7803 10.5552C11.7006 10.6347 11.6046 10.7362 11.5027 10.8437C11.2484 11.1135 10.9308 11.449 10.7318 11.585C9.68439 12.3007 8.28317 11.9583 7.29202 11.5453C5.98453 11.0005 4.56102 9.99625 3.28287 8.71786C2.00352 7.43938 0.999457 6.01536 0.454677 4.70854C0.042196 3.71712 -0.300984 2.31555 0.414835 1.26789C0.550766 1.06867 0.886962 0.75153 1.15643 0.496785C1.26424 0.395206 1.36502 0.299229 1.4447 0.219799C1.58617 0.0790262 1.77762 0 1.97719 0C2.17676 0 2.36821 0.0790262 2.50968 0.219799L4.43681 2.14647C4.5775 2.28794 4.65647 2.47935 4.65647 2.67887C4.65647 2.87839 4.5775 3.0698 4.43681 3.21127L3.91183 3.73522C3.73651 3.90927 3.62207 4.13528 3.58555 4.37962C3.54902 4.62396 3.59237 4.87356 3.70913 5.09128C4.4312 6.45419 5.54595 7.56881 6.90891 8.29069C7.12656 8.40742 7.3761 8.45071 7.62036 8.41412C7.86461 8.37754 8.09051 8.26303 8.26442 8.08765L8.78811 7.56367C8.92958 7.4229 9.12103 7.34387 9.3206 7.34387C9.52017 7.34387 9.71161 7.4229 9.85308 7.56367L11.7803 9.49067C11.921 9.63209 12 9.82347 12 10.023C12 10.2224 11.921 10.4138 11.7803 10.5552Z" fill="currentColor"/>
</svg>
