<svg width="18" height="18" viewBox="0 0 18 18" xmlns="http://www.w3.org/2000/svg">
<path d="M9 0C4.03725 0 0 4.03725 0 9C0 13.9628 4.03725 18 9 18C13.9628 18 18 13.9628 18 9C18 4.03725 13.9628 0 9 0ZM13.2803 13.6553C13.2108 13.7251 13.1281 13.7806 13.0371 13.8184C12.9461 13.8563 12.8486 13.8758 12.75 13.8758C12.6514 13.8758 12.5539 13.8563 12.4629 13.8184C12.3719 13.7806 12.2892 13.7251 12.2197 13.6553L8.46975 9.90525C8.39997 9.83572 8.34463 9.75308 8.30691 9.66207C8.2692 9.57107 8.24986 9.47351 8.25 9.375V4.5C8.25 4.30109 8.32902 4.11032 8.46967 3.96967C8.61032 3.82902 8.80109 3.75 9 3.75C9.19891 3.75 9.38968 3.82902 9.53033 3.96967C9.67098 4.11032 9.75 4.30109 9.75 4.5V9.0645L13.2803 12.5947C13.35 12.6643 13.4053 12.747 13.443 12.838C13.4807 12.929 13.5002 13.0265 13.5002 13.125C13.5002 13.2235 13.4807 13.321 13.443 13.412C13.4053 13.503 13.35 13.5857 13.2803 13.6553Z" fill="currentColor"/>
</svg>
