<svg width="21" height="16" viewBox="0 0 21 16" xmlns="http://www.w3.org/2000/svg">
<path fill-rule="evenodd" clip-rule="evenodd" d="M20.4872 1.38876C20.211 4.19975 19.0111 11.0235 18.402 14.1723C18.1442 15.5059 17.6348 15.952 17.1438 15.9949C16.0743 16.0898 15.2626 15.3118 14.2269 14.6569C12.6066 13.6315 11.6906 12.9928 10.1178 11.9911C8.29955 10.8338 9.47797 10.1981 10.5137 9.15936C10.7853 8.88671 15.4959 4.74802 15.5879 4.37312C15.5987 4.32571 15.6109 4.15085 15.502 4.05898C15.3931 3.96711 15.235 3.99823 15.1215 4.02342C14.9588 4.05898 12.3703 5.7112 7.35437 8.98007C6.61939 9.46758 5.95347 9.70467 5.35659 9.69282C4.69987 9.67948 3.43553 9.33422 2.49494 9.03786C1.34262 8.67629 0.425049 8.48366 0.504837 7.87019C0.546266 7.55012 1.00198 7.22264 1.87352 6.88775C5.44267 5.37606 9.02198 3.88681 12.6112 2.4201C17.7253 0.366313 18.7871 0.009197 19.4807 -0.00265747C20.3491 -0.0145119 20.5578 0.677494 20.4872 1.38876Z" fill="currentColor"/>
</svg>
