<svg width="21" height="20" viewBox="0 0 21 20" xmlns="http://www.w3.org/2000/svg">
<path d="M10.5025 0H10.4975C4.98375 0 0.5 4.48499 0.5 9.99999C0.5 12.1875 1.205 14.215 2.40375 15.8612L1.1575 19.5762L5.00125 18.3475C6.58249 19.395 8.46874 20 10.5025 20C16.0162 20 20.5 15.5137 20.5 9.99999C20.5 4.48625 16.0162 0 10.5025 0Z" fill="currentColor"/>
<path d="M16.2088 13.852C15.9703 14.5024 15.0237 15.0419 14.2687 15.1994C13.7521 15.3056 13.0774 15.3903 10.806 14.481C7.90073 13.3186 6.02977 10.4675 5.88395 10.2825C5.7443 10.0975 4.70996 8.77283 4.70996 7.40279C4.70996 6.03275 5.43042 5.36563 5.72082 5.07921C5.95933 4.8441 6.35354 4.73669 6.73169 4.73669C6.85403 4.73669 6.96401 4.74266 7.06287 4.74744C7.35328 4.75937 7.4991 4.77608 7.69065 5.21884C7.92915 5.77377 8.50996 7.14382 8.57917 7.28464C8.6496 7.42547 8.72004 7.61641 8.62118 7.80139C8.5285 7.99234 8.44694 8.07707 8.30112 8.23938C8.1553 8.40168 8.01689 8.5258 7.87107 8.70004C7.7376 8.8516 7.58684 9.01391 7.75491 9.29436C7.92297 9.56884 8.50378 10.4842 9.35894 11.2193C10.4625 12.1681 11.3572 12.4712 11.6772 12.6001C11.9158 12.6956 12.2 12.6729 12.3742 12.4939C12.5954 12.2636 12.8685 11.8817 13.1466 11.5058C13.3443 11.236 13.5939 11.2026 13.8559 11.2981C14.1228 11.3876 15.5353 12.0619 15.8257 12.2015C16.1161 12.3423 16.3077 12.4092 16.3781 12.5273C16.4473 12.6455 16.4473 13.2004 16.2088 13.852Z" fill="var(--color2)"/>
</svg>
