<svg width="80" height="80" viewBox="0 0 80 80" fill="none" xmlns="http://www.w3.org/2000/svg">
<path d="M40 25C31.7293 25 25 31.7293 25 40C25 48.2707 31.7293 55 40 55C48.2707 55 55 48.2707 55 40C55 31.7293 48.2707 25 40 25ZM40 51.0526C33.9053 51.0526 28.9474 46.0947 28.9474 40C28.9474 33.9053 33.9053 28.9474 40 28.9474C46.0947 28.9474 51.0526 33.9053 51.0526 40C51.0526 46.0947 46.0947 51.0526 40 51.0526Z" fill="#F9CA6F"/>
<path fill-rule="evenodd" clip-rule="evenodd" d="M30.5264 40.0003C30.5264 34.7769 34.7767 30.5266 40.0001 30.5266C45.2234 30.5266 49.4737 34.7769 49.4737 40.0003C49.4737 45.2237 45.2234 49.474 40.0001 49.474C34.7767 49.474 30.5264 45.2237 30.5264 40.0003ZM37.003 42.5058H35.7566V43.7899H37.003V44.9345H38.6276V43.7899H41.4425V42.5058H38.6276V41.417H40.5322C41.0644 41.417 41.5592 41.3519 42.0167 41.2216C42.4742 41.0914 42.8663 40.8959 43.1931 40.6354C43.5199 40.3655 43.7766 40.0259 43.9634 39.6164C44.1501 39.207 44.2435 38.7603 44.2435 38.2765V38.2067C44.2435 37.6204 44.1548 37.1272 43.9774 36.7271C43.8093 36.327 43.5666 36.0059 43.2491 35.764C42.9317 35.5127 42.5489 35.3359 42.1008 35.2336C41.6526 35.1219 41.1531 35.0661 40.6023 35.0661H37.003V40.0491H35.7566V41.417H37.003V42.5058ZM40.4622 40.0491C40.761 40.0491 41.0364 40.0166 41.2885 39.9514C41.5499 39.8863 41.7786 39.7839 41.9747 39.6444C42.1708 39.5048 42.3248 39.3233 42.4369 39.1C42.5582 38.8767 42.6236 38.6022 42.6329 38.2765C42.6329 37.9322 42.5863 37.6483 42.4929 37.425C42.3995 37.1924 42.2595 37.0109 42.0727 36.8806C41.8954 36.7411 41.6759 36.648 41.4145 36.6015C41.1531 36.5457 40.8497 36.5177 40.5042 36.5177H38.6276V40.0491H40.4622Z" fill="#F9CA6F"/>
<path d="M55.0394 41.2748C50.3584 40.0205 45.5293 42.8086 44.275 47.4896C43.0208 52.1705 45.8088 56.9996 50.4898 58.2539C55.1708 59.5081 59.9999 56.7201 61.2541 52.0391C62.5084 47.3581 59.7203 42.529 55.0394 41.2748ZM51.0884 56.0198C47.639 55.0955 45.5849 51.5376 46.5091 48.0882C47.4334 44.6387 50.9913 42.5846 54.4407 43.5089C57.8902 44.4331 59.9443 47.991 59.0201 51.4405C58.0958 54.8899 54.5379 56.9441 51.0884 56.0198Z" fill="white"/>
<path d="M51.0884 56.0198C47.639 55.0955 45.5849 51.5376 46.5091 48.0882C47.4334 44.6387 50.9913 42.5846 54.4407 43.5089C57.8902 44.4331 59.9443 47.991 59.0201 51.4405C58.0958 54.8899 54.5379 56.9441 51.0884 56.0198Z" fill="white"/>
<path d="M55.1688 40.7918C50.2211 39.4661 45.1178 42.4124 43.7921 47.3601C42.4663 52.3079 45.4127 57.4111 50.3604 58.7368C55.3081 60.0626 60.4114 57.1162 61.7371 52.1685C63.0628 47.2208 60.1165 42.1175 55.1688 40.7918ZM51.2179 55.5368C48.0351 54.684 46.1393 51.4003 46.9921 48.2176C47.8449 45.0349 51.1286 43.139 54.3113 43.9918C57.494 44.8446 59.3899 48.1284 58.5371 51.3111C57.6843 54.4938 54.4006 56.3896 51.2179 55.5368Z" fill="#F9CA6F" stroke="white"/>
<path fill-rule="evenodd" clip-rule="evenodd" d="M47.4031 48.3276C48.1953 45.3714 51.2454 43.6104 54.2017 44.4025C57.1579 45.1946 58.9189 48.2448 58.1268 51.201C57.3347 54.1573 54.2845 55.9183 51.3283 55.1262C48.372 54.334 46.611 51.2839 47.4031 48.3276ZM50.6888 50.7279L49.9834 50.5389L49.7886 51.2656L50.4941 51.4547L50.3205 52.1025L51.2399 52.3488L51.4135 51.701L53.0067 52.1279L53.2014 51.4011L51.6082 50.9742L51.7733 50.358L52.8513 50.6469C53.1525 50.7276 53.4425 50.7658 53.7211 50.7614C53.9998 50.7571 54.2514 50.7059 54.4758 50.608C54.7017 50.5048 54.8985 50.3516 55.0663 50.1481C55.2341 49.9447 55.3547 49.7061 55.428 49.4322L55.4386 49.3927C55.5275 49.0609 55.5521 48.7683 55.5124 48.515C55.478 48.263 55.3893 48.0445 55.2463 47.8594C55.1047 47.6691 54.9149 47.511 54.6768 47.3851C54.4401 47.2539 54.1658 47.1466 53.8541 47.063L51.817 46.5172L51.0613 49.3375L50.3559 49.1485L50.1485 49.9227L50.8539 50.1117L50.6888 50.7279ZM53.0191 49.8621C53.1882 49.9074 53.349 49.9307 53.5016 49.9321C53.6594 49.9349 53.8044 49.9116 53.9365 49.8624C54.0687 49.8131 54.1834 49.7338 54.2807 49.6243C54.3832 49.5164 54.4619 49.3709 54.5165 49.188C54.5687 48.9931 54.5854 48.8254 54.5664 48.6849C54.5488 48.539 54.4971 48.4151 54.4112 48.313C54.3319 48.2071 54.2219 48.1212 54.081 48.0552C53.9415 47.984 53.774 47.9222 53.5785 47.8698L52.5163 47.5852L51.9808 49.5839L53.0191 49.8621Z" fill="#F9CA6F"/>
</svg>
