<svg width="80" height="80" viewBox="0 0 80 80" fill="none" xmlns="http://www.w3.org/2000/svg">
<path d="M39.9995 36.7065C34.2485 36.7065 29.5693 41.3857 29.5693 47.1367C29.5693 52.8878 34.2485 57.5669 39.9995 57.5669C45.7506 57.5669 50.4297 52.8878 50.4297 47.1367C50.4297 41.3857 45.7506 36.7065 39.9995 36.7065ZM39.9995 54.8222C35.7616 54.8222 32.3141 51.3747 32.3141 47.1367C32.3141 42.8988 35.7616 39.4513 39.9995 39.4513C44.2375 39.4513 47.6849 42.8988 47.6849 47.1367C47.6849 51.3747 44.2375 54.8222 39.9995 54.8222Z" fill="#78A86E"/>
<path fill-rule="evenodd" clip-rule="evenodd" d="M33.4121 47.1368C33.4121 43.5048 36.3676 40.5493 39.9996 40.5493C43.6316 40.5493 46.5871 43.5048 46.5871 47.1368C46.5871 50.7689 43.6316 53.7243 39.9996 53.7243C36.3676 53.7243 33.4121 50.7689 33.4121 47.1368ZM37.9156 48.879H37.049V49.7719H37.9156V50.5678H39.0453V49.7719H41.0026V48.879H39.0453V48.1219H40.3697C40.7397 48.1219 41.0838 48.0767 41.4019 47.9861C41.72 47.8955 41.9927 47.7596 42.2199 47.5784C42.4471 47.3908 42.6256 47.1546 42.7555 46.8699C42.8853 46.5852 42.9503 46.2746 42.9503 45.9381V45.8896C42.9503 45.482 42.8886 45.139 42.7652 44.8608C42.6484 44.5826 42.4796 44.3593 42.2588 44.1911C42.0381 44.0164 41.7719 43.8935 41.4603 43.8223C41.1487 43.7446 40.8014 43.7058 40.4183 43.7058H37.9156V47.1708H37.049V48.1219H37.9156V48.879ZM40.321 47.1708C40.5287 47.1708 40.7202 47.1481 40.8955 47.1028C41.0773 47.0575 41.2363 46.9864 41.3727 46.8893C41.509 46.7923 41.6161 46.6661 41.694 46.5108C41.7784 46.3555 41.8239 46.1646 41.8304 45.9381C41.8304 45.6987 41.7979 45.5014 41.733 45.3461C41.6681 45.1843 41.5707 45.0582 41.4408 44.9676C41.3175 44.8705 41.1649 44.8058 40.9832 44.7735C40.8014 44.7346 40.5904 44.7152 40.3502 44.7152H39.0453V47.1708H40.321Z" fill="#78A86E"/>
<path d="M54.2729 24.6292H51.5281V24.0802C51.5281 23.1724 50.7891 22.4333 49.8812 22.4333C48.9734 22.4333 48.2344 23.1724 48.2344 24.0802V24.6292H31.7656V24.0802C31.7656 23.1724 31.0266 22.4333 30.1187 22.4333C29.2109 22.4333 28.4719 23.1724 28.4719 24.0802V24.6292H25.7271C24.5166 24.6292 23.5312 25.6139 23.5312 26.825V49.8812C23.5312 51.0924 24.5166 52.0771 25.7271 52.0771H29.0208C29.3241 52.0771 29.5698 51.8314 29.5698 51.5281C29.5698 51.2248 29.3241 50.9792 29.0208 50.9792H25.7271C25.1219 50.9792 24.6292 50.4865 24.6292 49.8812V31.2167H55.3708V49.8812C55.3708 50.4865 54.8781 50.9792 54.2729 50.9792H50.9791C50.6758 50.9792 50.4302 51.2248 50.4302 51.5281C50.4302 51.8314 50.6758 52.0771 50.9791 52.0771H54.2729C55.4833 52.0771 56.4687 51.0924 56.4687 49.8812V26.825C56.4687 25.6139 55.4833 24.6292 54.2729 24.6292ZM30.6677 26.825C30.6677 27.1276 30.4214 27.374 30.1187 27.374C29.8161 27.374 29.5698 27.1276 29.5698 26.825V24.0802C29.5698 23.7776 29.8161 23.5313 30.1187 23.5313C30.4214 23.5313 30.6677 23.7776 30.6677 24.0802V26.825ZM50.4302 26.825C50.4302 27.1276 50.1838 27.374 49.8812 27.374C49.5786 27.374 49.3323 27.1276 49.3323 26.825V24.0802C49.3323 23.7776 49.5786 23.5313 49.8812 23.5313C50.1838 23.5313 50.4302 23.7776 50.4302 24.0802V26.825Z" fill="#78A86E"/>
</svg>
