<svg width="21" height="20" viewBox="0 0 21 20" fill="none" xmlns="http://www.w3.org/2000/svg">
<path id="Vector" d="M20.0866 14.3385C19.7263 14.5777 19.2777 14.8755 18.4393 14.8755C17.6008 14.8755 17.1523 14.5777 16.7919 14.3385C16.4933 14.1402 16.2775 13.997 15.7926 13.997C15.3078 13.997 15.092 14.1402 14.7934 14.3384C14.433 14.5777 13.9845 14.8755 13.1461 14.8755C12.3077 14.8755 11.8592 14.5777 11.4988 14.3384C11.2002 14.1402 10.9845 13.997 10.4997 13.997C10.0149 13.997 9.79916 14.1402 9.50061 14.3384C9.14022 14.5777 8.69171 14.8755 7.85336 14.8755C7.01496 14.8755 6.56645 14.5777 6.2061 14.3384C5.90751 14.1402 5.69177 13.997 5.20696 13.997C4.72216 13.997 4.50642 14.1402 4.20783 14.3384C3.84744 14.5777 3.39893 14.8755 2.56053 14.8755C1.72218 14.8755 1.27367 14.5777 0.913279 14.3384C0.76953 14.243 0.644765 14.1605 0.500117 14.1004V16.2922C0.982185 16.3894 1.29589 16.5974 1.56144 16.7737C1.86003 16.972 2.07573 17.1152 2.5605 17.1152C3.04534 17.1152 3.26108 16.9719 3.55967 16.7737C3.92006 16.5344 4.36857 16.2367 5.20696 16.2367C6.04536 16.2367 6.49387 16.5344 6.85426 16.7737C7.15285 16.972 7.36855 17.1152 7.85336 17.1152C8.33812 17.1152 8.55386 16.9719 8.85241 16.7737C9.2128 16.5345 9.66127 16.2367 10.4997 16.2367C11.3381 16.2367 11.7866 16.5344 12.147 16.7737C12.4456 16.9719 12.6613 17.1152 13.1461 17.1152C13.631 17.1152 13.8467 16.9719 14.1453 16.7737C14.5057 16.5344 14.9542 16.2367 15.7926 16.2367C16.6311 16.2367 17.0796 16.5344 17.4401 16.7737C17.7387 16.9719 17.9544 17.1152 18.4393 17.1152C18.9242 17.1152 19.14 16.9719 19.4386 16.7737C19.7042 16.5974 20.0179 16.3894 20.5 16.2921V14.1003C20.3553 14.1605 20.2305 14.243 20.0866 14.3385ZM20.5 17.512C20.3553 17.5721 20.2305 17.6546 20.0866 17.75C19.7262 17.9893 19.2777 18.2871 18.4392 18.2871C17.6008 18.2871 17.1522 17.9893 16.7919 17.75C16.4932 17.5518 16.2775 17.4086 15.7926 17.4086C15.3078 17.4086 15.092 17.5518 14.7934 17.75C14.433 17.9893 13.9845 18.2871 13.1461 18.2871C12.3077 18.2871 11.8592 17.9893 11.4988 17.75C11.2002 17.5518 10.9844 17.4086 10.4996 17.4086C10.0149 17.4086 9.79913 17.5518 9.50057 17.75C9.14018 17.9893 8.69171 18.2871 7.85332 18.2871C7.01492 18.2871 6.56641 17.9893 6.20602 17.75C5.90743 17.5518 5.69169 17.4086 5.20689 17.4086C4.72208 17.4086 4.50634 17.5518 4.20775 17.75C3.84736 17.9893 3.39885 18.2871 2.56042 18.2871C1.72206 18.2871 1.27355 17.9893 0.913162 17.75C0.769412 17.6546 0.644648 17.5721 0.5 17.512V19.9993H20.4999V17.512H20.5ZM15.7926 10.5854C15.3078 10.5854 15.092 10.7286 14.7934 10.9268C14.433 11.1661 13.9845 11.4639 13.1461 11.4639C12.3077 11.4639 11.8592 11.1661 11.4988 10.9268C11.2002 10.7286 10.9844 10.5854 10.4996 10.5854C10.0149 10.5854 9.79913 10.7286 9.50057 10.9268C9.14018 11.1661 8.69171 11.4639 7.85332 11.4639C7.01492 11.4639 6.56641 11.1661 6.20602 10.9268C5.90743 10.7286 5.69169 10.5854 5.20689 10.5854C4.72208 10.5854 4.50634 10.7286 4.20775 10.9268C3.84736 11.1661 3.39885 11.4639 2.56042 11.4639C1.72206 11.4639 1.27355 11.1661 0.913162 10.9268C0.769334 10.8313 0.644726 10.7486 0.5 10.6885V12.8806C0.982067 12.9778 1.29574 13.1858 1.56132 13.3621C1.85987 13.5604 2.07562 13.7036 2.56038 13.7036C3.04522 13.7036 3.26096 13.5603 3.55955 13.3621C3.91994 13.1229 4.36845 12.8251 5.20685 12.8251C6.04524 12.8251 6.49375 13.1229 6.85414 13.3621C7.15273 13.5604 7.36848 13.7036 7.85328 13.7036C8.33808 13.7036 8.55378 13.5603 8.85233 13.3621C9.21272 13.1229 9.66124 12.8251 10.4996 12.8251C11.338 12.8251 11.7865 13.1229 12.1469 13.3621C12.4455 13.5604 12.6612 13.7036 13.1461 13.7036C13.6309 13.7036 13.8466 13.5603 14.1452 13.3621C14.5056 13.1229 14.9541 12.8251 15.7926 12.8251C16.631 12.8251 17.0796 13.1229 17.4399 13.3621C17.7386 13.5604 17.9543 13.7036 18.4392 13.7036C18.9241 13.7036 19.1399 13.5604 19.4385 13.3621C19.7041 13.1858 20.0178 12.9778 20.4999 12.8806V10.6884C20.3552 10.7486 20.2305 10.8313 20.0866 10.9268C19.7262 11.1661 19.2777 11.4639 18.4392 11.4639C17.6007 11.4639 17.1522 11.1661 16.7918 10.9268C16.4933 10.7286 16.2775 10.5854 15.7926 10.5854ZM0.500078 1.13463H5.18755V4.96785H0.500078V1.13463ZM9.91409 5.09246C11.8141 5.48804 13.2461 7.17511 13.2461 9.19072V10.2896C13.662 10.2709 13.8681 10.1345 14.1453 9.95052C14.5057 9.71126 14.9542 9.41349 15.7926 9.41349C16.424 9.41349 16.8343 9.58236 17.1524 9.76794V9.19072C17.1524 5.01707 13.9762 1.57209 9.91413 1.14381V5.09246H9.91409ZM6.35942 0.000732422H8.74222V6.10179H6.35942V0.000732422Z" fill="white"/>
</svg>
