<svg width="21" height="20" viewBox="0 0 21 20" fill="none" xmlns="http://www.w3.org/2000/svg">
<g id="Group">
<path id="Vector" d="M16.7514 5.73208C16.7514 5.67282 16.7439 5.61379 16.7292 5.55637C16.4994 4.66231 16.0791 3.82847 15.4971 3.11194C14.9151 2.39542 14.1851 1.81315 13.3571 1.40499V2.85711C13.3571 3.04655 13.2819 3.22823 13.1479 3.36218C13.014 3.49614 12.8323 3.57139 12.6428 3.57139C12.4534 3.57139 12.2717 3.49614 12.1378 3.36218C12.0038 3.22823 11.9286 3.04655 11.9286 2.85711V0.714278C11.9286 0.52484 11.8533 0.34316 11.7194 0.209207C11.5854 0.0752541 11.4037 0 11.2143 0H9.78573C9.59629 0 9.41461 0.0752541 9.28066 0.209207C9.1467 0.34316 9.07145 0.52484 9.07145 0.714278V2.85711C9.07145 3.04655 8.99619 3.22823 8.86224 3.36218C8.72829 3.49614 8.54661 3.57139 8.35717 3.57139C8.16773 3.57139 7.98605 3.49614 7.8521 3.36218C7.71815 3.22823 7.64289 3.04655 7.64289 2.85711V1.40499C6.8148 1.81318 6.08474 2.39556 5.50271 3.11221C4.92068 3.82887 4.50044 4.66287 4.27079 5.55708C4.25639 5.61448 4.25061 5.6737 4.25364 5.7328C3.9887 5.77654 3.74992 5.91838 3.58475 6.1301C3.41959 6.34183 3.34013 6.60795 3.36218 6.87558C3.38423 7.1432 3.50616 7.39273 3.70375 7.57457C3.90134 7.75642 4.16011 7.85726 4.42864 7.85706H16.5714C16.8411 7.85971 17.1019 7.76029 17.3015 7.57873C17.501 7.39718 17.6246 7.1469 17.6473 6.87809C17.6701 6.60927 17.5904 6.34178 17.4243 6.12925C17.2581 5.91672 17.0177 5.77485 16.7514 5.73208Z" fill="white"/>
<path id="Vector_2" d="M5.50003 9.28564H15.4999V9.99992C15.5003 11.3113 14.9837 12.5699 14.0621 13.5027C14.0642 13.5263 14.0714 13.5477 14.0714 13.5713V14.5592L10.4821 16.3527L6.92859 14.7742V13.5713C6.92859 13.5477 6.93573 13.5263 6.93787 13.5027C6.05002 12.5999 5.50003 11.3642 5.50003 9.99992V9.28564Z" fill="white"/>
<path id="Vector_3" d="M6.21433 19.9999H14.7857V15.7985L10.8193 17.782C10.725 17.8291 10.6215 17.8547 10.5162 17.8571C10.4108 17.8594 10.3063 17.8384 10.21 17.7956L6.21433 16.0192V19.9999ZM4.78578 15.7942C3.08187 16.3146 1.61022 17.408 0.620106 18.8892C0.548336 18.9967 0.507115 19.1218 0.500841 19.2509C0.494567 19.3801 0.523475 19.5085 0.584482 19.6226C0.645488 19.7366 0.736304 19.8319 0.84724 19.8983C0.958176 19.9648 1.08507 19.9999 1.21439 19.9999H4.78578V15.7942ZM20.3799 18.8892C19.3898 17.408 17.9181 16.3146 16.2142 15.7942V19.9999H19.7856C19.9149 19.9999 20.0418 19.9648 20.1528 19.8983C20.2637 19.8319 20.3545 19.7366 20.4155 19.6226C20.4765 19.5085 20.5054 19.3801 20.4992 19.2509C20.4929 19.1218 20.4517 18.9967 20.3799 18.8892Z" fill="white"/>
</g>
</svg>
