<svg width="19" height="20" viewBox="0 0 19 20" fill="none" xmlns="http://www.w3.org/2000/svg">
<g id="Group">
<path id="Vector" d="M9.5 8.125C6.22617 8.125 3.5625 10.7887 3.5625 14.0625C3.5625 17.3363 6.22617 20 9.5 20C12.7738 20 15.4375 17.3363 15.4375 14.0625C15.4375 10.7887 12.7738 8.125 9.5 8.125ZM9.5 18.4375C7.0875 18.4375 5.125 16.475 5.125 14.0625C5.125 11.65 7.0875 9.6875 9.5 9.6875C11.9125 9.6875 13.875 11.65 13.875 14.0625C13.875 16.475 11.9125 18.4375 9.5 18.4375Z" fill="white"/>
<path id="Vector_2" fill-rule="evenodd" clip-rule="evenodd" d="M5.75 14.0625C5.75 11.9949 7.43242 10.3125 9.5 10.3125C11.5676 10.3125 13.25 11.9949 13.25 14.0625C13.25 16.1301 11.5676 17.8125 9.5 17.8125C7.43242 17.8125 5.75 16.1301 5.75 14.0625ZM8.31369 15.0543H7.82031V15.5626H8.31369V16.0156H8.95673V15.5626H10.071V15.0543H8.95673V14.6233H9.71065C9.92131 14.6233 10.1172 14.5975 10.2983 14.5459C10.4794 14.4944 10.6346 14.417 10.7639 14.3139C10.8933 14.2071 10.9949 14.0726 11.0688 13.9106C11.1427 13.7485 11.1797 13.5717 11.1797 13.3801V13.3525C11.1797 13.1205 11.1446 12.9252 11.0744 12.7669C11.0078 12.6085 10.9118 12.4814 10.7861 12.3856C10.6604 12.2862 10.5089 12.2162 10.3315 12.1757C10.1541 12.1315 9.95642 12.1094 9.73837 12.1094H8.31369V14.0818H7.82031V14.6233H8.31369V15.0543ZM9.68294 14.0818C9.8012 14.0818 9.91022 14.0689 10.01 14.0432C10.1135 14.0174 10.204 13.9769 10.2816 13.9216C10.3592 13.8664 10.4202 13.7945 10.4646 13.7061C10.5126 13.6177 10.5385 13.5091 10.5422 13.3801C10.5422 13.2439 10.5237 13.1315 10.4867 13.0431C10.4498 12.951 10.3944 12.8792 10.3204 12.8276C10.2502 12.7724 10.1634 12.7356 10.0599 12.7171C9.95642 12.695 9.83631 12.684 9.69957 12.684H8.95673V14.0818H9.68294Z" fill="white"/>
<path id="Vector_3" d="M17.625 1.25H16.0625V0.9375C16.0625 0.420703 15.6418 0 15.125 0C14.6082 0 14.1875 0.420703 14.1875 0.9375V1.25H4.8125V0.9375C4.8125 0.420703 4.3918 0 3.875 0C3.3582 0 2.9375 0.420703 2.9375 0.9375V1.25H1.375C0.685938 1.25 0.125 1.81055 0.125 2.5V15.625C0.125 16.3145 0.685938 16.875 1.375 16.875H3.25C3.42266 16.875 3.5625 16.7352 3.5625 16.5625C3.5625 16.3898 3.42266 16.25 3.25 16.25H1.375C1.03047 16.25 0.75 15.9695 0.75 15.625V5H18.25V15.625C18.25 15.9695 17.9695 16.25 17.625 16.25H15.75C15.5773 16.25 15.4375 16.3898 15.4375 16.5625C15.4375 16.7352 15.5773 16.875 15.75 16.875H17.625C18.3141 16.875 18.875 16.3145 18.875 15.625V2.5C18.875 1.81055 18.3141 1.25 17.625 1.25ZM4.1875 2.5C4.1875 2.67227 4.04727 2.8125 3.875 2.8125C3.70273 2.8125 3.5625 2.67227 3.5625 2.5V0.9375C3.5625 0.765234 3.70273 0.625 3.875 0.625C4.04727 0.625 4.1875 0.765234 4.1875 0.9375V2.5ZM15.4375 2.5C15.4375 2.67227 15.2973 2.8125 15.125 2.8125C14.9527 2.8125 14.8125 2.67227 14.8125 2.5V0.9375C14.8125 0.765234 14.9527 0.625 15.125 0.625C15.2973 0.625 15.4375 0.765234 15.4375 0.9375V2.5Z" fill="white"/>
</g>
</svg>
