<svg width="21" height="26" viewBox="0 0 21 26" fill="none" xmlns="http://www.w3.org/2000/svg">
<g id="01-home">
<path id="Vector" d="M10.1111 0C4.53582 0 0 4.53582 0 10.1111C0 12.8195 1.64084 16.2975 4.87691 20.4481C6.35951 22.3448 7.96508 24.1421 9.68326 25.8283C9.79846 25.9385 9.95172 26 10.1111 26C10.2705 26 10.4238 25.9385 10.539 25.8283C12.2572 24.1421 13.8627 22.3448 15.3453 20.4481C18.5814 16.2975 20.2222 12.8195 20.2222 10.1111C20.2222 4.53582 15.6864 0 10.1111 0ZM10.1111 17.3333C6.12858 17.3333 2.88889 14.0937 2.88889 10.1111C2.88889 6.12858 6.12858 2.88889 10.1111 2.88889C14.0937 2.88889 17.3334 6.12858 17.3334 10.1111C17.3334 14.0937 14.0937 17.3333 10.1111 17.3333Z" fill="white"/>
<circle id="Ellipse 23" cx="10" cy="10" r="6" fill="white"/>
</g>
</svg>
