<svg width="14" height="14" viewBox="0 0 14 14" fill="none" xmlns="http://www.w3.org/2000/svg">
<g id="Group">
<path id="Vector" d="M9.33288 1.28101V0.880857C9.33288 0.670345 9.16254 0.5 8.95203 0.5C8.74151 0.5 8.57117 0.670345 8.57117 0.880857V1.28101C6.4392 1.47433 4.7627 3.29499 4.7627 5.47641C4.7627 5.617 4.84006 5.74606 4.96392 5.81228C5.02471 5.84473 5.09316 5.8601 5.16199 5.85676C5.23082 5.85342 5.29746 5.83149 5.35483 5.79331C5.92088 5.41616 6.65134 5.41616 7.2174 5.79331C7.27337 5.8303 7.33806 5.85196 7.40502 5.85614C7.47197 5.86032 7.53886 5.84687 7.59899 5.81713L8.20113 5.51587C8.31882 5.45724 8.44304 5.41276 8.57119 5.38333V9.69118H9.33288V5.38325C9.46105 5.41265 9.58528 5.45716 9.70295 5.51584L10.3051 5.8171C10.4278 5.87847 10.5987 5.86953 10.7121 5.79328C11.2781 5.41613 12.0086 5.41613 12.5746 5.79328C12.632 5.83151 12.6986 5.85346 12.7675 5.8568C12.8363 5.86014 12.9048 5.84475 12.9656 5.81225C13.0264 5.77974 13.0772 5.73132 13.1126 5.67216C13.1481 5.61301 13.1668 5.54534 13.1668 5.47639C13.1667 3.29494 11.4648 1.47428 9.33288 1.28101Z" fill="#F9CA6F"/>
<path id="Vector_2" d="M11.8573 11.9327C12.1713 11.8386 12.4052 11.5584 12.4052 11.2143C12.4052 10.7944 12.0634 10.4526 11.6435 10.4526H3.59498L1.5379 7.7104C1.28237 7.36883 0.80368 7.30941 0.472334 7.55791C0.135224 7.81113 0.0666187 8.28748 0.319838 8.62459L2.60496 11.6714C2.70365 11.8032 2.84835 11.8799 3.00372 11.9261L2.49266 12.9482C2.39856 13.1364 2.47481 13.3651 2.663 13.4592C2.8531 13.5536 3.08045 13.4755 3.17401 13.2888L3.83043 11.976H11.0273L11.6837 13.2888C11.7773 13.4755 12.0047 13.5536 12.1947 13.4592C12.3829 13.3651 12.4592 13.1364 12.3651 12.9482L11.8573 11.9327Z" fill="#F9CA6F"/>
<path id="Vector_3" d="M6.66705 8.16748H2.83319L2.83301 8.16753L3.40432 8.92917H6.66705C6.87718 8.92917 7.04791 9.0999 7.04791 9.31003V9.69088H7.8096V9.31003C7.8096 8.68001 7.29706 8.16748 6.66705 8.16748Z" fill="#F9CA6F"/>
</g>
</svg>
