<svg width="14" height="14" viewBox="0 0 14 14" fill="none" xmlns="http://www.w3.org/2000/svg">
<path id="Vector" d="M11.8849 9.36608L11.4298 6.94372C11.3264 6.38024 11.0287 5.87087 10.5884 5.50428C10.1482 5.13768 9.59336 4.93706 9.02048 4.93735H7.47779C7.52545 3.65466 6.98378 1.6873 4.60474 0.998291C4.54016 0.979454 4.47208 0.975913 4.40589 0.987947C4.3397 0.999981 4.27722 1.02726 4.2234 1.06763C4.16958 1.10799 4.1259 1.16033 4.09582 1.2205C4.06573 1.28067 4.05007 1.34702 4.05007 1.4143V2.25498L1.74903 3.40766C1.53104 3.51819 1.34774 3.68669 1.2193 3.89464C1.09086 4.10259 1.02225 4.34193 1.02102 4.58635C1.02102 5.10202 1.30703 5.55703 1.76637 5.78236L2.81938 6.28504L2.29937 9.42242L2.23004 9.39642C1.55836 9.15375 0.817351 9.50475 0.57468 10.1764C0.336343 10.8481 0.687349 11.5891 1.35903 11.8275L2.52904 12.2478C3.9634 12.7591 5.46709 13.0191 7.00111 13.0191C8.5308 13.0191 10.0345 12.7591 11.4688 12.2478L12.6432 11.8275C12.9682 11.7148 13.2282 11.4765 13.3755 11.1644C13.5229 10.8524 13.5402 10.5014 13.4232 10.1764C13.1979 9.54375 12.5219 9.20142 11.8849 9.36608ZM5.31109 10.1331C5.41361 9.76192 5.63465 9.43444 5.94054 9.20053C6.24642 8.96662 6.62038 8.8391 7.00545 8.83741C7.35645 8.83741 7.69446 8.94141 7.98479 9.13641C8.27513 9.33575 8.50047 9.61309 8.63047 9.93809L8.76914 10.2848C7.61212 10.4754 6.4291 10.4754 5.26775 10.2891L5.31109 10.1331ZM12.5912 10.7961C12.5425 10.8963 12.4572 10.9739 12.3529 11.0128L11.1785 11.4331C8.49613 12.3908 5.50176 12.3908 2.82371 11.4331L1.64936 11.0128C1.59696 10.9941 1.54877 10.9652 1.50754 10.9278C1.46631 10.8905 1.43287 10.8453 1.40912 10.795C1.38537 10.7447 1.37178 10.6902 1.36913 10.6346C1.36648 10.579 1.37483 10.5235 1.39369 10.4711C1.41177 10.4182 1.44021 10.3694 1.47735 10.3276C1.5145 10.2857 1.55959 10.2517 1.61002 10.2275C1.66044 10.2033 1.71518 10.1894 1.77104 10.1866C1.8269 10.1838 1.88276 10.1921 1.93537 10.2111L3.10972 10.6271C5.62719 11.5198 8.37503 11.5198 10.8925 10.6271L12.0625 10.2111C12.1154 10.1919 12.1716 10.1834 12.2278 10.1861C12.284 10.1889 12.3391 10.2027 12.3899 10.2269C12.4407 10.2511 12.4862 10.2851 12.5237 10.3271C12.5613 10.369 12.5901 10.4179 12.6085 10.4711C12.6475 10.5751 12.6432 10.6921 12.5912 10.7961Z" fill="#EF7D7D"/>
</svg>
