<svg width="12" height="14" viewBox="0 0 12 14" fill="none" xmlns="http://www.w3.org/2000/svg">
<path id="Vector" d="M1.12484 0.5C0.534421 0.5 0.0415039 0.992917 0.0415039 1.58333V12.9583C0.0415039 13.102 0.0985722 13.2398 0.200154 13.3414C0.301737 13.4429 0.439512 13.5 0.583171 13.5H7.08317C7.22683 13.5 7.36461 13.4429 7.46619 13.3414C7.56777 13.2398 7.62484 13.102 7.62484 12.9583V10.5208C7.62484 10.449 7.65337 10.3801 7.70416 10.3293C7.75496 10.2785 7.82384 10.25 7.89567 10.25H8.16651C8.47201 10.25 8.70817 10.4862 8.70817 10.7917V11.3333C8.70817 12.2244 9.44213 12.9583 10.3332 12.9583C11.2242 12.9583 11.9582 12.2244 11.9582 11.3333V4.29167C11.9582 3.78088 11.7171 3.29825 11.3082 2.99167L9.57484 1.69167C9.45981 1.60575 9.31543 1.56892 9.1733 1.58922C9.03117 1.60952 8.90288 1.68532 8.81651 1.8C8.73073 1.91508 8.69398 2.05942 8.71428 2.20151C8.73458 2.34359 8.81028 2.47187 8.92484 2.55833L9.57484 3.04583C9.64211 3.09629 9.69672 3.16171 9.73432 3.23693C9.77193 3.31214 9.79151 3.39508 9.79151 3.47917V4.83333C9.79151 5.33275 10.142 5.76175 10.6073 5.88308C10.7513 5.92046 10.8748 6.038 10.8748 6.1875V11.3333C10.8748 11.6388 10.6387 11.875 10.3332 11.875C10.0277 11.875 9.79151 11.6388 9.79151 11.3333V10.7917C9.79151 9.90063 9.05755 9.16667 8.16651 9.16667H7.89567C7.82384 9.16667 7.75496 9.13813 7.70416 9.08734C7.65337 9.03655 7.62484 8.96766 7.62484 8.89583V1.58333C7.62484 0.992917 7.13192 0.5 6.54151 0.5H1.12484ZM1.39567 1.58333H6.27067C6.42071 1.58333 6.54151 1.70413 6.54151 1.85417V5.64583C6.54151 5.79588 6.42071 5.91667 6.27067 5.91667H1.39567C1.36008 5.91674 1.32483 5.90978 1.29194 5.8962C1.25905 5.88261 1.22917 5.86266 1.204 5.8375C1.17884 5.81234 1.15889 5.78245 1.14531 5.74956C1.13172 5.71667 1.12477 5.68142 1.12484 5.64583V1.85417C1.12484 1.70413 1.24563 1.58333 1.39567 1.58333Z" fill="#6EA2F1"/>
</svg>
