<svg width="16" height="23" viewBox="0 0 16 23" fill="none" xmlns="http://www.w3.org/2000/svg">
<path id="Vector" d="M10.7202 17.1192H5.28022C4.87557 17.1192 4.547 17.4476 4.547 17.8525C4.547 18.2576 4.87557 18.5859 5.28022 18.5859H10.7202C11.1248 18.5859 11.4537 18.2576 11.4537 17.8525C11.4537 17.4476 11.1248 17.1192 10.7202 17.1192ZM6.57435 21.4505V21.85C6.57435 22.301 6.93944 22.6665 7.39068 22.6665H8.60957C9.05993 22.6665 9.42591 22.301 9.42591 21.85V21.4505C10.3498 21.3849 11.0811 20.6226 11.0811 19.6823H4.91845C4.91849 20.6226 5.65055 21.3849 6.57435 21.4505ZM8.00033 0.666504C3.94112 0.666504 0.650391 3.95691 0.650391 8.01604C0.650391 9.72883 1.23958 11.3011 2.22372 12.5494C3.09399 13.6526 3.91887 14.8586 4.62989 16.0713H11.3696C12.088 14.8471 12.8979 13.6637 13.7767 12.5486C14.76 11.3008 15.3495 9.72834 15.3495 8.01595C15.3495 3.95696 12.0587 0.666504 8.00033 0.666504ZM8.01255 3.2164C5.40331 3.2164 3.28157 5.33845 3.28157 7.94693C3.28157 8.3519 2.95362 8.68029 2.54803 8.68029C2.1427 8.68029 1.81476 8.3519 1.81476 7.94693C1.81476 4.52986 4.59485 1.74978 8.01255 1.74978C8.41689 1.74978 8.74582 2.07803 8.74582 2.483C8.74582 2.88797 8.41689 3.2164 8.01255 3.2164Z" fill="#FFE500"/>
</svg>
