<svg width="14" height="14" viewBox="0 0 14 14" fill="none" xmlns="http://www.w3.org/2000/svg">
<path id="Vector" d="M12.6136 4.93182H9.06818V1.38636C9.06818 1.15129 8.97479 0.925835 8.80857 0.75961C8.64234 0.593384 8.41689 0.5 8.18181 0.5H5.81818C5.5831 0.5 5.35765 0.593384 5.19143 0.75961C5.0252 0.925835 4.93182 1.15129 4.93182 1.38636V4.93182H1.38636C1.15129 4.93182 0.925835 5.0252 0.75961 5.19143C0.593384 5.35765 0.5 5.5831 0.5 5.81818V8.18182C0.5 8.4169 0.593384 8.64235 0.75961 8.80857C0.925835 8.9748 1.15129 9.06818 1.38636 9.06818H4.93182V12.6136C4.93182 12.8487 5.0252 13.0742 5.19143 13.2404C5.35765 13.4066 5.5831 13.5 5.81818 13.5H8.18181C8.41689 13.5 8.64234 13.4066 8.80857 13.2404C8.97479 13.0742 9.06818 12.8487 9.06818 12.6136V9.06818H12.6136C12.8487 9.06818 13.0742 8.9748 13.2404 8.80857C13.4066 8.64235 13.5 8.4169 13.5 8.18182V5.81818C13.5 5.5831 13.4066 5.35765 13.2404 5.19143C13.0742 5.0252 12.8487 4.93182 12.6136 4.93182Z" fill="#3FC8DB"/>
</svg>
