<svg width="12" height="14" viewBox="0 0 12 14" fill="none" xmlns="http://www.w3.org/2000/svg">
<path d="M4.2667 6.13347V9.16653H7.73364V6.13347H4.2667ZM9.03364 1.36653C8.00515 1.14224 6.99195 0.852809 6.00017 0.5C5.00839 0.852809 3.99519 1.14224 2.9667 1.36653C2.10792 1.5549 1.24014 1.69958 0.366699 1.8V6.12453C0.367222 7.54993 0.775499 8.94542 1.54335 10.1463C2.31119 11.3472 3.40656 12.3034 4.70017 12.902L6.00017 13.5L7.30017 12.902C8.59378 12.3034 9.68915 11.3472 10.457 10.1463C11.2248 8.94542 11.6331 7.54993 11.6336 6.12453V1.8C10.7602 1.69959 9.89241 1.55492 9.03364 1.36653ZM8.60017 9.16653C8.59953 9.39619 8.50804 9.61626 8.34568 9.7787C8.18333 9.94113 7.9633 10.0327 7.73364 10.0335H4.2667C4.03704 10.0327 3.81701 9.94113 3.65466 9.7787C3.4923 9.61626 3.40081 9.39619 3.40017 9.16653V6.13347C3.40081 5.90381 3.4923 5.68374 3.65466 5.52131C3.81701 5.35887 4.03704 5.26728 4.2667 5.26653V4.83347C4.2667 3.87553 5.04264 3.1 6.00017 3.1C6.9577 3.1 7.73364 3.87594 7.73364 4.83347V5.26653C7.9633 5.26728 8.18333 5.35887 8.34568 5.52131C8.50804 5.68374 8.59953 5.90381 8.60017 6.13347V9.16653ZM4.2667 6.13347V9.16653H7.73364V6.13347H4.2667ZM6.8667 4.83347C6.8667 4.35653 6.4767 3.96653 6.00017 3.96653C5.52364 3.96653 5.13364 4.35653 5.13364 4.83347V5.26653H6.8667V4.83347Z" fill="#749AE4"/>
</svg>
