<svg width="13" height="14" viewBox="0 0 13 14" fill="none" xmlns="http://www.w3.org/2000/svg">
<path id="Vector" d="M8.8758 11.5528C8.83729 11.6174 8.78265 11.6709 8.71724 11.708C8.65182 11.7451 8.57788 11.7646 8.50267 11.7645H5.03166V13.0661C5.03166 13.1812 4.98595 13.2916 4.90458 13.3729C4.82322 13.4543 4.71286 13.5 4.59779 13.5C4.48272 13.5 4.37236 13.4543 4.29099 13.3729C4.20962 13.2916 4.16391 13.1812 4.16391 13.0661V11.7645H0.692906C0.617735 11.7645 0.543844 11.7451 0.478472 11.7079C0.4131 11.6708 0.358492 11.6174 0.319997 11.5528C0.281503 11.4882 0.260443 11.4148 0.258883 11.3396C0.257322 11.2645 0.275314 11.1902 0.311095 11.1241L1.84485 8.29349H1.56066C1.486 8.2935 1.4126 8.27425 1.34757 8.2376C1.28253 8.20094 1.22805 8.14813 1.18939 8.08426C1.15074 8.02039 1.12922 7.94762 1.12692 7.873C1.12461 7.79838 1.1416 7.72443 1.17624 7.6583L2.43448 5.25636H2.42841C2.35284 5.25637 2.27858 5.23663 2.21298 5.19911C2.14738 5.16159 2.09272 5.10759 2.05441 5.04245C2.01609 4.97731 1.99546 4.90329 1.99455 4.82773C1.99363 4.75216 2.01247 4.67767 2.0492 4.61162L4.21858 0.706742C4.37174 0.431231 4.82384 0.431231 4.97699 0.706742L7.10949 4.54481C7.17446 4.62273 7.20994 4.72103 7.20972 4.82249C7.20972 5.06372 7.01317 5.23901 6.7715 5.25636H6.76109L7.98332 7.58975C8.04233 7.6635 8.07747 7.75766 8.07747 7.85962C8.07747 8.10085 7.87442 8.3039 7.63926 8.29349H7.35116L8.88405 11.1241C8.91985 11.1902 8.93788 11.2644 8.93636 11.3396C8.93484 11.4147 8.91382 11.4882 8.87537 11.5528H8.8758ZM7.63492 13.0661C7.63492 13.3048 7.83016 13.5 8.06879 13.5C8.30742 13.5 8.50267 13.3048 8.50267 13.0661V12.6322H7.63492V13.0661ZM12.3555 11.1224L10.8239 8.29349H11.1103C11.3532 8.30217 11.5485 8.10259 11.5485 7.85962C11.5485 7.75549 11.5138 7.66437 11.453 7.59061L10.2295 5.25636H10.2425C10.4898 5.23901 10.6807 5.06546 10.6807 4.82249C10.6807 4.71836 10.6417 4.61856 10.5809 4.54481L8.44627 0.705006C8.29441 0.431665 7.84318 0.431665 7.69132 0.705006L6.82791 2.25394L7.83884 4.07188C7.99503 4.28882 8.07747 4.55348 8.07747 4.82249C8.07747 5.07847 8.00371 5.31277 7.87789 5.51669L8.72395 7.13504C8.88853 7.3808 8.96485 7.67514 8.94042 7.96991C8.91599 8.26468 8.79225 8.54243 8.58944 8.75774L9.6481 10.7102C9.82599 11.0356 9.85202 11.4217 9.7262 11.7645H11.9737C12.1255 11.7645 12.2687 11.6821 12.3468 11.5519C12.4249 11.4217 12.4292 11.2569 12.3555 11.1224Z" fill="#78A86E"/>
</svg>
