<svg width="14" height="12" viewBox="0 0 14 12" fill="none" xmlns="http://www.w3.org/2000/svg">
<path id="Vector" d="M12.0481 0.643555C11.0637 0.643555 10.2628 1.44446 10.2628 2.42885V3.80524H9.11872V2.42888C9.11872 1.44445 8.31786 0.64358 7.33345 0.64358C6.34904 0.64358 5.54818 1.44448 5.54818 2.42888V3.80526H4.40409V2.42888C4.40409 1.44445 3.60323 0.64358 2.61882 0.64358C1.63441 0.64358 0.833496 1.44445 0.833496 2.42888V11.3566H4.40406V9.21136H5.54815V11.3566H9.11872V9.21136H10.2628V11.3566H13.8334V2.42888C13.8334 1.44445 13.0325 0.643555 12.0481 0.643555ZM5.54815 7.68669H4.40406V5.32992H5.54815V7.68669ZM10.2628 7.68669H9.11869V5.32992H10.2628V7.68669Z" fill="#B77966"/>
</svg>
