<svg width="14" height="14" viewBox="0 0 14 14" fill="none" xmlns="http://www.w3.org/2000/svg">
<path id="Vector" d="M11.1417 5.55193H1.38147C0.895184 5.55193 0.500977 5.94613 0.500977 6.43242V8.52138C0.500977 11.132 2.51509 13.3553 5.12354 13.4939C7.33137 13.6036 9.33715 12.2155 10.0125 10.1107H11.2099C12.4694 10.1152 13.4941 9.09792 13.4986 7.83846C13.4989 7.76294 13.4954 7.68745 13.4882 7.61228C13.3525 6.42415 12.3374 5.53288 11.1417 5.55193ZM11.1571 9.01005H10.2458V6.65254H11.2099C11.8615 6.65056 12.3914 7.17721 12.3934 7.8288C12.3935 7.86896 12.3916 7.9091 12.3876 7.94906C12.3099 8.5658 11.7785 9.02395 11.1571 9.01005ZM2.12329 4.52837C2.17442 4.57954 2.23517 4.62008 2.30203 4.64766C2.3689 4.67524 2.44057 4.68931 2.5129 4.68906C2.58494 4.68951 2.65633 4.67552 2.72287 4.64792C2.78941 4.62032 2.84975 4.57967 2.90031 4.52837C3.11549 4.31373 3.11592 3.9653 2.9013 3.75013L2.90031 3.74914C2.69161 3.53815 2.69161 3.1985 2.90031 2.98751C3.53248 2.34923 3.52482 1.31327 2.90031 0.667414C2.68141 0.456574 2.33304 0.463093 2.1222 0.681999C1.91651 0.895552 1.91699 1.23368 2.12329 1.44665C2.33359 1.65584 2.33453 1.99589 2.12534 2.20622L2.12329 2.20828C1.4826 2.84845 1.4822 3.8868 2.12237 4.52746L2.12329 4.52837ZM4.98489 4.52837C5.03602 4.57954 5.09677 4.62008 5.16364 4.64766C5.23051 4.67524 5.30217 4.68931 5.37451 4.68906C5.44654 4.68951 5.51793 4.67552 5.58447 4.64792C5.65101 4.62032 5.71135 4.57967 5.76192 4.52837C5.97709 4.31373 5.97752 3.9653 5.7629 3.75013L5.76192 3.74914C5.55321 3.53815 5.55321 3.1985 5.76192 2.98751C6.40283 2.34928 6.40544 1.31279 5.76722 0.671878C5.76559 0.670254 5.76397 0.668631 5.76192 0.667414C5.55044 0.449117 5.20207 0.443587 4.98377 0.655035C4.76548 0.866509 4.75995 1.21488 4.97139 1.43318C4.97581 1.43774 4.98032 1.44223 4.98489 1.44665C5.1952 1.65584 5.19613 1.99589 4.98694 2.20622L4.98489 2.20828C4.34288 2.84711 4.33794 3.88304 4.97677 4.52505C4.97865 4.52695 4.98058 4.52888 4.98489 4.52837ZM7.84647 4.52837C7.89759 4.57954 7.95834 4.62008 8.02521 4.64766C8.09208 4.67524 8.16375 4.68931 8.23608 4.68906C8.30812 4.68951 8.37951 4.67552 8.44605 4.64792C8.51259 4.62032 8.57292 4.57967 8.62349 4.52837C8.83867 4.31373 8.8391 3.9653 8.62448 3.75013L8.62349 3.74914C8.41478 3.53815 8.41478 3.1985 8.62349 2.98751C9.26423 2.34911 9.26618 1.31226 8.6278 0.671523C8.62641 0.670128 8.62501 0.668707 8.62352 0.667414C8.40461 0.456574 8.05624 0.463093 7.8454 0.681999C7.63971 0.895552 7.64019 1.23368 7.84649 1.44665C8.0568 1.65584 8.05774 1.99589 7.84855 2.20622L7.84649 2.20828C7.20449 2.84711 7.19954 3.88304 7.83837 4.52505C7.84025 4.52695 7.84215 4.52888 7.84647 4.52837Z" fill="#DB814E"/>
</svg>
