<svg width="14" height="14" viewBox="0 0 14 14" fill="none" xmlns="http://www.w3.org/2000/svg">
<path id="Vector" d="M1.04931 0.683105C0.903621 0.683105 0.763903 0.740979 0.660888 0.843993C0.557873 0.947008 0.5 1.08673 0.5 1.23241C0.5 1.3781 0.557873 1.51781 0.660888 1.62083C0.763903 1.72384 0.903621 1.78172 1.04931 1.78172H2.02707C2.10691 1.78186 2.1847 1.80706 2.24945 1.85378C2.3142 1.90049 2.36265 1.96636 2.38796 2.04209L4.19902 7.47637C4.27977 7.71806 4.28966 7.97733 4.22814 8.22452L4.07928 8.82161C3.8601 9.69721 4.54179 10.5706 5.44375 10.5706H12.0354C12.1811 10.5706 12.3208 10.5127 12.4238 10.4097C12.5269 10.3067 12.5847 10.167 12.5847 10.0213C12.5847 9.87561 12.5269 9.73589 12.4238 9.63288C12.3208 9.52986 12.1811 9.47199 12.0354 9.47199H5.44375C5.22952 9.47199 5.0922 9.29621 5.14438 9.08913L5.25699 8.63979C5.27596 8.56379 5.31977 8.4963 5.38147 8.44804C5.44317 8.39977 5.51922 8.3735 5.59756 8.37338H11.4861C11.6015 8.37352 11.7141 8.3373 11.8078 8.26986C11.9014 8.20241 11.9715 8.10717 12.008 7.99766L13.4719 3.60321C13.4994 3.52063 13.5068 3.4327 13.4937 3.34666C13.4806 3.26062 13.4471 3.17894 13.3962 3.10834C13.3453 3.03774 13.2784 2.98025 13.2009 2.94061C13.1234 2.90097 13.0376 2.88031 12.9506 2.88033H4.1007C4.02076 2.8803 3.94285 2.85515 3.87799 2.80843C3.81313 2.7617 3.7646 2.69577 3.73926 2.61996L3.21851 1.05883C3.18207 0.949405 3.1121 0.854228 3.01854 0.786791C2.92498 0.719354 2.81256 0.683078 2.69722 0.683105H1.04931ZM4.89445 11.1199C4.60308 11.1199 4.32364 11.2357 4.11761 11.4417C3.91158 11.6477 3.79583 11.9271 3.79583 12.2185C3.79583 12.5099 3.91158 12.7893 4.11761 12.9954C4.32364 13.2014 4.60308 13.3171 4.89445 13.3171C5.18582 13.3171 5.46525 13.2014 5.67128 12.9954C5.87731 12.7893 5.99306 12.5099 5.99306 12.2185C5.99306 11.9271 5.87731 11.6477 5.67128 11.4417C5.46525 11.2357 5.18582 11.1199 4.89445 11.1199ZM11.4861 11.1199C11.1947 11.1199 10.9153 11.2357 10.7093 11.4417C10.5032 11.6477 10.3875 11.9271 10.3875 12.2185C10.3875 12.5099 10.5032 12.7893 10.7093 12.9954C10.9153 13.2014 11.1947 13.3171 11.4861 13.3171C11.7775 13.3171 12.0569 13.2014 12.2629 12.9954C12.469 12.7893 12.5847 12.5099 12.5847 12.2185C12.5847 11.9271 12.469 11.6477 12.2629 11.4417C12.0569 11.2357 11.7775 11.1199 11.4861 11.1199Z" fill="#EF7DD6"/>
</svg>
