<svg width="12" height="14" viewBox="0 0 12 14" fill="none" xmlns="http://www.w3.org/2000/svg">
<path d="M2.10864 13.4987V0.507363C2.10864 0.504875 2.10897 0.502463 2.10902 0.5H1.46138C1.16855 0.5 0.931152 0.737402 0.931152 1.03023V12.9698C0.931152 13.2626 1.16855 13.5 1.46138 13.5H2.10872C2.10872 13.4996 2.10864 13.4992 2.10864 13.4987ZM9.08134 0.5H2.91672C2.91678 0.502463 2.91711 0.504875 2.91711 0.507363V13.4987C2.91711 13.4992 2.91705 13.4996 2.91703 13.5H9.08103C9.08103 13.4996 9.08096 13.4992 9.08096 13.4987V0.507363C9.08096 0.504875 9.08129 0.502463 9.08134 0.5ZM6.37099 11.9393C6.37099 12.1625 6.19001 12.3435 5.96677 12.3435C5.74354 12.3435 5.56255 12.1625 5.56255 11.9393V10.7726C5.56255 10.5494 5.74354 10.3684 5.96677 10.3684C6.19001 10.3684 6.37099 10.5494 6.37099 10.7726V11.9393ZM6.37099 9.0023C6.37099 9.22554 6.19001 9.40652 5.96677 9.40652C5.74354 9.40652 5.56255 9.22554 5.56255 9.0023V7.83566C5.56255 7.61242 5.74354 7.43144 5.96677 7.43144C6.19001 7.43144 6.37099 7.61242 6.37099 7.83566V9.0023ZM6.37099 6.06537C6.37099 6.28861 6.19001 6.46959 5.96677 6.46959C5.74354 6.46959 5.56255 6.28861 5.56255 6.06537V4.89872C5.56255 4.67549 5.74354 4.4945 5.96677 4.4945C6.19001 4.4945 6.37099 4.67549 6.37099 4.89872V6.06537ZM6.37099 3.12841C6.37099 3.35165 6.19001 3.53263 5.96677 3.53263C5.74354 3.53263 5.56255 3.35165 5.56255 3.12841V1.96176C5.56255 1.73853 5.74354 1.55754 5.96677 1.55754C6.19001 1.55754 6.37099 1.73853 6.37099 1.96176V3.12841ZM9.88904 0.5C9.88909 0.502463 9.88942 0.504875 9.88942 0.507363V13.4987C9.88942 13.4992 9.88937 13.4996 9.88935 13.5H10.5383C10.8311 13.5 11.0685 13.2626 11.0685 12.9698V1.03023C11.0685 0.737402 10.8311 0.5 10.5383 0.5H9.88904Z" fill="#8CB0BF"/>
</svg>
