<svg width="14" height="12" viewBox="0 0 14 12" fill="none" xmlns="http://www.w3.org/2000/svg">
<g id="Group">
<path id="Vector" d="M7.98399 8.5353C7.67599 8.67966 7.33989 8.75418 6.99973 8.7535C6.65814 8.75368 6.32063 8.6792 6.01083 8.5353L2.82129 7.05891V9.07849C2.82127 9.35073 2.90079 9.61704 3.05009 9.84469C3.19938 10.0723 3.41193 10.2514 3.66162 10.3599C4.71451 10.8256 5.84877 11.0796 6.99973 11.1074C8.1507 11.0796 9.28495 10.8256 10.3378 10.3599C10.5875 10.2514 10.8001 10.0723 10.9494 9.84469C11.0987 9.61704 11.1782 9.35073 11.1782 9.07849V7.05891L7.98399 8.5353ZM12.571 6.41357V8.32173C12.571 8.44486 12.5221 8.56295 12.435 8.65002C12.3479 8.73709 12.2299 8.786 12.1067 8.786C11.9836 8.786 11.8655 8.73709 11.7784 8.65002C11.6914 8.56295 11.6424 8.44486 11.6424 8.32173V6.8407L12.571 6.41357Z" fill="#6DBD97"/>
<path id="Vector_2" d="M6.99975 7.82518C6.79362 7.82511 6.58999 7.77995 6.40316 7.69286L1.04686 5.21412C0.883568 5.1386 0.745302 5.01792 0.648398 4.86634C0.551494 4.71476 0.5 4.53861 0.5 4.3587C0.5 4.17879 0.551494 4.00264 0.648398 3.85106C0.745302 3.69947 0.883568 3.5788 1.04686 3.50328L6.40316 1.02453C6.59004 0.937613 6.79365 0.892578 6.99975 0.892578C7.20585 0.892578 7.40946 0.937613 7.59634 1.02453L12.9526 3.50328C13.1161 3.57874 13.2545 3.69942 13.3515 3.85105C13.4485 4.00269 13.5 4.17893 13.5 4.35893C13.5 4.53893 13.4485 4.71517 13.3515 4.8668C13.2545 5.01844 13.1161 5.13912 12.9526 5.21458L7.59634 7.69286C7.4095 7.77995 7.20588 7.82511 6.99975 7.82518Z" fill="#6DBD97"/>
</g>
</svg>
