<svg width="18" height="23" viewBox="0 0 18 23" fill="none" xmlns="http://www.w3.org/2000/svg">
<path id="Vector" d="M2.41504 22.6645V0.679087C2.41504 0.674876 2.4156 0.670794 2.41568 0.666626H1.31968C0.824121 0.666626 0.422363 1.06838 0.422363 1.56394V21.7693C0.422363 22.2649 0.824121 22.6666 1.31968 22.6666H2.41517C2.41517 22.6659 2.41504 22.6652 2.41504 22.6645ZM14.215 0.666626H3.78256C3.78265 0.670794 3.78321 0.674876 3.78321 0.679087V22.6645C3.78321 22.6652 3.78312 22.6659 3.78308 22.6666H14.2145C14.2145 22.6659 14.2143 22.6652 14.2143 22.6645V0.679087C14.2143 0.674876 14.2149 0.670794 14.215 0.666626ZM9.62825 20.0254C9.62825 20.4032 9.32196 20.7094 8.94418 20.7094C8.5664 20.7094 8.26012 20.4032 8.26012 20.0254V18.0511C8.26012 17.6733 8.5664 17.367 8.94418 17.367C9.32196 17.367 9.62825 17.6733 9.62825 18.0511V20.0254ZM9.62825 15.0551C9.62825 15.4329 9.32196 15.7392 8.94418 15.7392C8.5664 15.7392 8.26012 15.4329 8.26012 15.0551V13.0808C8.26012 12.703 8.5664 12.3968 8.94418 12.3968C9.32196 12.3968 9.62825 12.703 9.62825 13.0808V15.0551ZM9.62825 10.0849C9.62825 10.4627 9.32196 10.769 8.94418 10.769C8.5664 10.769 8.26012 10.4627 8.26012 10.0849V8.11062C8.26012 7.73284 8.5664 7.42656 8.94418 7.42656C9.32196 7.42656 9.62825 7.73284 9.62825 8.11062V10.0849ZM9.62825 5.11471C9.62825 5.49249 9.32196 5.79877 8.94418 5.79877C8.5664 5.79877 8.26012 5.49249 8.26012 5.11471V3.14038C8.26012 2.7626 8.5664 2.45632 8.94418 2.45632C9.32196 2.45632 9.62825 2.7626 9.62825 3.14038V5.11471ZM15.5819 0.666626C15.582 0.670794 15.5825 0.674876 15.5825 0.679087V22.6645C15.5825 22.6652 15.5824 22.6659 15.5824 22.6666H16.6806C17.1761 22.6666 17.5779 22.2649 17.5779 21.7693V1.56394C17.5779 1.06838 17.1761 0.666626 16.6806 0.666626H15.5819Z" fill="#78A86E"/>
</svg>
