<svg width="22" height="23" viewBox="0 0 22 23" fill="none" xmlns="http://www.w3.org/2000/svg">
<path id="Vector" d="M21.5453 16.4391C21.1489 16.7023 20.6555 17.0299 19.7332 17.0299C18.8109 17.0299 18.3175 16.7023 17.9211 16.4391C17.5926 16.221 17.3553 16.0635 16.8219 16.0635C16.2885 16.0635 16.0512 16.221 15.7228 16.4391C15.3263 16.7023 14.833 17.0298 13.9107 17.0298C12.9884 17.0298 12.4951 16.7023 12.0987 16.4391C11.7702 16.221 11.5329 16.0635 10.9996 16.0635C10.4664 16.0635 10.2291 16.221 9.90067 16.4391C9.50425 16.7023 9.01088 17.0298 8.08869 17.0298C7.16646 17.0298 6.67309 16.7023 6.27671 16.4391C5.94826 16.221 5.71094 16.0635 5.17766 16.0635C4.64438 16.0635 4.40706 16.221 4.07861 16.4391C3.68219 16.7023 3.18882 17.0298 2.26659 17.0298C1.3444 17.0298 0.851034 16.7023 0.454607 16.4391C0.296483 16.3341 0.159241 16.2434 0.000128906 16.1772V18.5883C0.530403 18.6953 0.875483 18.9241 1.16758 19.1181C1.49603 19.3362 1.73331 19.4937 2.26655 19.4937C2.79987 19.4937 3.03719 19.3361 3.36564 19.118C3.76206 18.8548 4.25543 18.5273 5.17766 18.5273C6.09989 18.5273 6.59326 18.8548 6.98969 19.1181C7.31814 19.3362 7.55541 19.4937 8.08869 19.4937C8.62193 19.4937 8.85925 19.3361 9.18765 19.1181C9.58408 18.8549 10.0774 18.5273 10.9996 18.5273C11.9219 18.5273 12.4152 18.8548 12.8117 19.118C13.1401 19.3361 13.3774 19.4937 13.9108 19.4937C14.4441 19.4937 14.6814 19.3361 15.0098 19.118C15.4063 18.8548 15.8996 18.5273 16.8219 18.5273C17.7442 18.5273 18.2376 18.8548 18.6341 19.118C18.9626 19.3361 19.1999 19.4937 19.7332 19.4937C20.2666 19.4937 20.504 19.3361 20.8324 19.118C21.1246 18.9241 21.4697 18.6953 22 18.5883V16.1772C21.8408 16.2433 21.7035 16.3341 21.5453 16.4391ZM22 19.9303C21.8408 19.9964 21.7035 20.0871 21.5453 20.1921C21.1488 20.4553 20.6555 20.7829 19.7332 20.7829C18.8108 20.7829 18.3175 20.4553 17.921 20.1921C17.5926 19.974 17.3552 19.8165 16.8219 19.8165C16.2885 19.8165 16.0512 19.974 15.7228 20.1921C15.3263 20.4553 14.833 20.7829 13.9107 20.7829C12.9885 20.7829 12.4951 20.4553 12.0986 20.1921C11.7702 19.974 11.5329 19.8165 10.9996 19.8165C10.4664 19.8165 10.229 19.974 9.90063 20.1921C9.5042 20.4553 9.01088 20.7829 8.08865 20.7829C7.16642 20.7829 6.67305 20.4553 6.27662 20.1921C5.94817 19.974 5.71086 19.8165 5.17758 19.8165C4.64429 19.8165 4.40698 19.974 4.07853 20.1921C3.6821 20.4553 3.18874 20.7829 2.26646 20.7829C1.34427 20.7829 0.850905 20.4553 0.454478 20.1921C0.296354 20.0871 0.159112 19.9964 0 19.9303V22.6665H21.9999L22 19.9303ZM16.8219 12.3104C16.2885 12.3104 16.0512 12.468 15.7228 12.6861C15.3263 12.9493 14.833 13.2768 13.9107 13.2768C12.9885 13.2768 12.4951 12.9493 12.0986 12.686C11.7702 12.4679 11.5329 12.3104 10.9996 12.3104C10.4664 12.3104 10.229 12.468 9.90063 12.686C9.5042 12.9492 9.01088 13.2768 8.08865 13.2768C7.16642 13.2768 6.67305 12.9493 6.27662 12.6861C5.94817 12.468 5.71086 12.3104 5.17758 12.3104C4.64429 12.3104 4.40698 12.468 4.07853 12.686C3.6821 12.9492 3.18874 13.2768 2.26646 13.2768C1.34427 13.2768 0.850905 12.9493 0.454478 12.686C0.296268 12.581 0.159198 12.4899 0 12.4239V14.8353C0.530274 14.9423 0.875311 15.1711 1.16745 15.3651C1.49586 15.5832 1.73318 15.7407 2.26642 15.7407C2.79974 15.7407 3.03706 15.5831 3.36551 15.3651C3.76193 15.1019 4.2553 14.7743 5.17753 14.7743C6.09977 14.7743 6.59313 15.1019 6.98956 15.3651C7.31801 15.5832 7.55532 15.7407 8.0886 15.7407C8.62189 15.7407 8.85916 15.5831 9.18757 15.3651C9.58399 15.1019 10.0774 14.7743 10.9995 14.7743C11.9218 14.7743 12.4151 15.1019 12.8116 15.3651C13.14 15.5832 13.3773 15.7407 13.9107 15.7407C14.444 15.7407 14.6813 15.5831 15.0098 15.3651C15.4062 15.1019 15.8995 14.7743 16.8218 14.7743C17.7441 14.7743 18.2375 15.1019 18.6339 15.3651C18.9624 15.5832 19.1997 15.7407 19.7331 15.7407C20.2665 15.7407 20.5038 15.5832 20.8323 15.3651C21.1245 15.1711 21.4696 14.9423 21.9999 14.8353V12.4238C21.8407 12.4899 21.7036 12.581 21.5453 12.6861C21.1488 12.9493 20.6554 13.2768 19.7331 13.2768C18.8108 13.2768 18.3174 12.9493 17.921 12.6861C17.5926 12.468 17.3552 12.3104 16.8219 12.3104ZM8.5937e-05 1.91388H5.15631V6.13072H8.5937e-05V1.91388ZM10.3555 6.2678C12.4455 6.70297 14.0207 8.55887 14.0207 10.7762V11.9851C14.4782 11.9645 14.7049 11.8145 15.0098 11.612C15.4063 11.3488 15.8996 11.0213 16.8219 11.0213C17.5165 11.0213 17.9678 11.207 18.3176 11.4112V10.7762C18.3176 6.18486 14.8238 2.39512 10.3555 1.92398L10.3555 6.2678ZM6.44536 0.666504H9.06644V7.37814H6.44536V0.666504Z" fill="#78B5ED"/>
</svg>
