<svg width="14" height="23" viewBox="0 0 14 23" fill="none" xmlns="http://www.w3.org/2000/svg">
<path id="Vector" d="M11.5833 18.0832V20.8332H7.91662V18.0832H6.0833V20.8332H2.41665V18.0832H0.583331V21.7498C0.583331 21.993 0.679907 22.2261 0.851815 22.398C1.02372 22.5699 1.25688 22.6665 1.49999 22.6665H12.4999C12.743 22.6665 12.9762 22.5699 13.1481 22.398C13.32 22.2261 13.4166 21.993 13.4166 21.7498V18.0832H11.5833ZM6.99996 16.2499C11.1121 16.2499 13.8749 13.8551 13.8749 10.2916C13.8749 8.80406 12.9115 6.33343 11.8131 5.00427C11.7469 4.92409 11.6553 4.86882 11.5535 4.84754C11.4517 4.82626 11.3457 4.84024 11.2529 4.88717L9.10015 5.97571L7.43538 0.980016C7.406 0.891816 7.3505 0.814632 7.27624 0.758709C7.20198 0.702786 7.11247 0.670766 7.01958 0.666901C6.9267 0.663035 6.83484 0.687505 6.75619 0.737063C6.67754 0.786622 6.61582 0.858926 6.57921 0.944381L4.04167 6.86429L2.19012 5.68008C2.09142 5.61698 1.97229 5.59407 1.85722 5.61606C1.74214 5.63805 1.63986 5.70328 1.57138 5.79833C0.743747 6.94714 0.125 9.11802 0.125 10.2916C0.125 13.8551 2.88782 16.2499 6.99996 16.2499ZM6.99996 7.99992C6.99996 7.99992 9.74994 11.0644 9.74994 12.5832C9.74994 13.3126 9.46022 14.012 8.94449 14.5278C8.42877 15.0435 7.7293 15.3332 6.99996 15.3332C6.27062 15.3332 5.57115 15.0435 5.05543 14.5278C4.53971 14.012 4.24998 13.3126 4.24998 12.5832C4.24998 11.0644 6.99996 7.99992 6.99996 7.99992Z" fill="#FF9559"/>
</svg>
