<svg width="12" height="14" viewBox="0 0 12 14" fill="none" xmlns="http://www.w3.org/2000/svg">
<path id="Vector" d="M8.83458 7.29359C7.85039 6.72845 7.24718 6.34716 7.24718 5.65869V5.27783H6.38093V3.94271L7.32328 3.59971L7.06274 2.88395L6.38093 3.13212V2.12721H7.2696V1.36549H6.38093V0.5H5.61921V1.36549H4.73054V2.12721H5.61921V3.40936L4.67684 3.75236L4.93737 4.46812L5.61921 4.21996V5.27786H4.75293V5.65871C4.75293 6.34716 4.14973 6.72847 3.16556 7.29362C2.0563 7.93057 0.675781 8.72329 0.675781 10.5197C0.675781 10.7676 0.693402 10.9992 0.723871 11.2149H11.2763C11.3067 10.9992 11.3244 10.7676 11.3244 10.5197C11.3244 8.72326 9.94384 7.93054 8.83458 7.29359ZM1.73358 13.3999L1.84281 13.5H10.1574L10.2666 13.3999C10.2967 13.3722 10.7995 12.9004 11.1008 11.9766H0.899295C1.20068 12.9003 1.70347 13.3722 1.73358 13.3999Z" fill="#F9CA6F"/>
</svg>
