<svg width="14" height="6" viewBox="0 0 14 6" fill="none" xmlns="http://www.w3.org/2000/svg">
<g id="Vector">
<path d="M11.8275 2.73432C12.3725 2.73432 12.6641 2.54453 12.8983 2.39204C12.9918 2.3312 13.0729 2.27861 13.167 2.24027V3.63721C12.8536 3.6992 12.6497 3.83175 12.4771 3.94413C12.283 4.07048 12.1427 4.16178 11.8275 4.16178C11.5124 4.16178 11.3722 4.0705 11.1781 3.94416L11.178 3.94413L11.178 3.94412C10.9437 3.79163 10.6522 3.60186 10.1072 3.60186C9.56224 3.60186 9.27071 3.79163 9.03646 3.94412L9.03644 3.94413L9.03643 3.94414C8.84235 4.07049 8.70212 4.16178 8.38698 4.16178C8.07184 4.16178 7.93161 4.07049 7.73753 3.94414L7.73752 3.94413L7.7375 3.94412C7.50325 3.79163 7.21172 3.60186 6.66678 3.60186C6.1219 3.60186 5.83039 3.79162 5.59616 3.94409L5.59606 3.94416L5.59603 3.94418C5.40199 4.07049 5.26175 4.16178 4.94667 4.16178C4.63155 4.16178 4.49135 4.07051 4.29726 3.94416C4.06301 3.79164 3.77148 3.60186 3.22652 3.60186C2.68157 3.60186 2.39004 3.79163 2.15579 3.94412L2.15578 3.94413L2.15576 3.94414C1.96169 4.07049 1.82145 4.16178 1.50631 4.16178C1.19122 4.16178 1.05101 4.07051 0.856928 3.94416C0.684323 3.83178 0.480412 3.69923 0.167068 3.63724V2.24032C0.261089 2.27864 0.342186 2.3312 0.435623 2.39202L0.435639 2.39203C0.669889 2.54452 0.961421 2.73429 1.50634 2.73429C2.05128 2.73429 2.34282 2.54452 2.57707 2.39203L2.57708 2.39202L2.57714 2.39198C2.7712 2.26567 2.91143 2.1744 3.22652 2.1744C3.54164 2.1744 3.68187 2.26567 3.87596 2.39202C4.11018 2.54451 4.40172 2.73429 4.94667 2.73429C5.49159 2.73429 5.78312 2.54452 6.01737 2.39203L6.01739 2.39202L6.01742 2.392C6.21146 2.26568 6.3517 2.1744 6.66678 2.1744C6.9819 2.1744 7.12213 2.26567 7.31621 2.39202C7.55044 2.54451 7.84197 2.73429 8.38696 2.73429C8.93192 2.73429 9.22346 2.54452 9.45771 2.39203L9.45772 2.39202L9.45779 2.39198C9.65184 2.26567 9.79207 2.1744 10.1072 2.1744C10.4224 2.1744 10.5626 2.26568 10.7567 2.39201L10.7567 2.39204C10.991 2.54453 11.2825 2.73432 11.8275 2.73432Z" fill="#78B5ED"/>
<path d="M12.8983 4.56642C12.9918 4.50557 13.0729 4.45301 13.167 4.4147L13.1669 6H0.166992V4.4147C0.261013 4.45301 0.34211 4.50557 0.435547 4.56639C0.6698 4.71891 0.961333 4.90869 1.50626 4.90869C2.0512 4.90869 2.34273 4.71892 2.57697 4.56643L2.57703 4.56639L2.57709 4.56635C2.77115 4.44005 2.91138 4.34877 3.22647 4.34877C3.54158 4.34877 3.68181 4.44006 3.87589 4.56641L3.87591 4.56642L3.87592 4.56642C4.11017 4.71891 4.4017 4.90869 4.94665 4.90869C5.49153 4.90869 5.78303 4.71893 6.01727 4.56645L6.01736 4.56639L6.01739 4.56637C6.21144 4.44006 6.35167 4.34877 6.66675 4.34877C6.98187 4.34877 7.1221 4.44004 7.31619 4.56639C7.55044 4.71891 7.842 4.90869 8.38696 4.90869C8.93193 4.90869 9.22346 4.71891 9.45771 4.56642L9.45772 4.56642L9.45774 4.56641C9.65182 4.44006 9.79205 4.34877 10.1072 4.34877C10.4223 4.34877 10.5626 4.44005 10.7567 4.56639L10.7567 4.56642L10.7567 4.56642C10.991 4.71891 11.2825 4.90869 11.8275 4.90869C12.3725 4.90869 12.664 4.71893 12.8983 4.56645L12.8983 4.56642Z" fill="#78B5ED"/>
<path d="M9.45774 0.217635C9.65182 0.0912908 9.79205 0 10.1072 0C10.4224 0 10.5626 0.0912956 10.7567 0.217645L10.7567 0.217653C10.9909 0.370142 11.2825 0.559919 11.8275 0.559919C12.3724 0.559919 12.664 0.370164 12.8982 0.217679L12.8983 0.217645C12.9918 0.156748 13.0728 0.104017 13.1669 0.0657013V1.46286C12.8535 1.52485 12.6496 1.6574 12.477 1.76978C12.2829 1.89613 12.1426 1.98743 11.8275 1.98743C11.5123 1.98743 11.3721 1.89615 11.178 1.76981L11.178 1.76978C10.9437 1.61729 10.6521 1.42751 10.1072 1.42751C9.56219 1.42751 9.27066 1.61729 9.03641 1.76977L9.03639 1.76978L9.03633 1.76982C8.84228 1.89613 8.70204 1.9874 8.38693 1.9874C8.07178 1.9874 7.93155 1.89613 7.73747 1.76978L7.73745 1.76977C7.5032 1.61729 7.21167 1.42751 6.66673 1.42751C6.12181 1.42751 5.83027 1.61729 5.59602 1.76977L5.59601 1.76978L5.59593 1.76983C5.40191 1.89613 5.2617 1.9874 4.94662 1.9874C4.6315 1.9874 4.49127 1.89613 4.29718 1.76978L4.29717 1.76977C4.06292 1.61729 3.77139 1.42751 3.22644 1.42751C2.6815 1.42751 2.38997 1.61729 2.15572 1.76977L2.1557 1.76978L2.15564 1.76982C1.96159 1.89613 1.82135 1.9874 1.50624 1.9874C1.19114 1.9874 1.05091 1.89613 0.856851 1.76978C0.684222 1.6574 0.480336 1.52485 0.166992 1.46286V0.0657261C0.260902 0.103951 0.341781 0.156591 0.435065 0.217305L0.435547 0.217619C0.6698 0.370134 0.961333 0.559919 1.50626 0.559919C2.0512 0.559919 2.34273 0.370144 2.57697 0.21766L2.57703 0.217619L2.57709 0.217578C2.77115 0.0912752 2.91138 0 3.22647 0C3.54158 0 3.68181 0.0912913 3.87589 0.217636L3.87591 0.217645L3.87592 0.217652C4.11017 0.370141 4.4017 0.559919 4.94665 0.559919C5.49153 0.559919 5.78303 0.370161 6.01727 0.217682L6.01736 0.217619L6.01739 0.217601C6.21144 0.0912861 6.35167 0 6.66675 0C6.98187 0 7.1221 0.0912702 7.31619 0.217619C7.55044 0.370134 7.842 0.559919 8.38696 0.559919C8.93193 0.559919 9.22346 0.370143 9.45771 0.217654L9.45772 0.217645L9.45774 0.217635Z" fill="#78B5ED"/>
</g>
</svg>
