<svg width="38" height="15" viewBox="0 0 38 15" fill="none" xmlns="http://www.w3.org/2000/svg">
<path d="M1 6.5C0.447715 6.5 4.82823e-08 6.94772 0 7.5C-4.82823e-08 8.05228 0.447715 8.5 1 8.5L1 6.5ZM31.7071 8.20711C32.0976 7.81659 32.0976 7.18342 31.7071 6.7929L25.3431 0.428934C24.9526 0.0384099 24.3195 0.0384098 23.9289 0.428934C23.5384 0.819459 23.5384 1.45262 23.9289 1.84315L29.5858 7.5L23.9289 13.1569C23.5384 13.5474 23.5384 14.1805 23.9289 14.5711C24.3195 14.9616 24.9526 14.9616 25.3431 14.5711L31.7071 8.20711ZM1 8.5L31 8.5L31 6.5L1 6.5L1 8.5Z" fill="#78A86E" fill-opacity="0.4"/>
<path d="M7 6.5C6.44772 6.5 6 6.94772 6 7.5C6 8.05228 6.44772 8.5 7 8.5L7 6.5ZM37.7071 8.20711C38.0976 7.81659 38.0976 7.18342 37.7071 6.7929L31.3431 0.428934C30.9526 0.0384099 30.3195 0.0384098 29.9289 0.428934C29.5384 0.819459 29.5384 1.45262 29.9289 1.84315L35.5858 7.5L29.9289 13.1569C29.5384 13.5474 29.5384 14.1805 29.9289 14.5711C30.3195 14.9616 30.9526 14.9616 31.3431 14.5711L37.7071 8.20711ZM7 8.5L37 8.5L37 6.5L7 6.5L7 8.5Z" fill="#78A86E"/>
</svg>
