<svg width="40" height="41" viewBox="0 0 40 41" fill="none" xmlns="http://www.w3.org/2000/svg">
<path d="M17.2869 2.0105L17.3443 1.98182L17.3925 1.93958C18.814 0.695763 20.976 0.671721 22.6297 1.95797L22.6688 1.98836L22.7131 2.0105C22.813 2.06048 22.9586 2.18836 23.1826 2.46219C23.3345 2.64777 23.4955 2.86528 23.6848 3.12104C23.7686 3.2342 23.8579 3.35485 23.9544 3.48354L23.9758 3.51197L24.0009 3.5371C24.212 3.74827 24.3399 3.87719 24.4197 3.9769C24.4412 4.00379 24.4543 4.02281 24.462 4.03492V4.20078L24.6085 4.34722C25.5336 5.27234 26.8881 5.70886 28.2025 5.70886H29.2152H29.2566L29.2974 5.70206C30.4549 5.50914 31.0341 5.50636 31.4197 5.50633C33.3702 5.69457 34.8034 7.29302 34.9937 9.08267C34.9936 9.46828 34.9905 10.0475 34.7979 11.2026L34.7911 11.2434V11.2848V12.2975C34.7911 13.6443 35.247 14.7642 36.1159 15.8503L36.1332 15.8719L36.1528 15.8915L36.1542 15.893C36.3556 16.0944 36.5892 16.328 37.0195 16.5551C37.4141 16.9412 37.7629 17.1946 38.0256 17.3855C38.0374 17.394 38.0489 17.4024 38.0603 17.4107C38.368 17.6345 38.4537 17.7153 38.4895 17.7869L38.5182 17.8443L38.5604 17.8925C39.8042 19.314 39.8283 21.476 38.542 23.1297L38.5116 23.1688L38.4895 23.2131C38.4395 23.313 38.3116 23.4586 38.0378 23.6826C37.8522 23.8345 37.6347 23.9955 37.379 24.1848C37.2658 24.2686 37.1451 24.3579 37.0165 24.4544L36.988 24.4757L36.9629 24.5009C36.7517 24.712 36.6228 24.8399 36.5231 24.9197C36.4962 24.9412 36.4772 24.9543 36.4651 24.962H36.2992L36.1528 25.1085C35.2277 26.0336 34.7911 27.3881 34.7911 28.7025V29.7152V29.7566L34.7979 29.7974C34.9909 30.9549 34.9936 31.5341 34.9937 31.9197C34.8054 33.8702 33.207 35.3034 31.4173 35.4937C31.0317 35.4936 30.4525 35.4905 29.2974 35.2979L29.2566 35.2911H29.2152H28.2025C26.8557 35.2911 25.7358 35.747 24.6497 36.6159L24.6281 36.6332L24.6085 36.6528L24.607 36.6543C24.4056 36.8556 24.172 37.0892 23.9449 37.5195C23.5588 37.9141 23.3054 38.2629 23.1145 38.5256C23.106 38.5374 23.0976 38.549 23.0893 38.5603C22.8655 38.8681 22.7847 38.9537 22.7131 38.9895L22.6557 39.0182L22.6075 39.0604C21.186 40.3042 19.024 40.3283 17.3703 39.042L17.3312 39.0116L17.2869 38.9895C17.187 38.9395 17.0414 38.8116 16.8174 38.5378C16.6655 38.3522 16.5045 38.1348 16.3152 37.879C16.2314 37.7658 16.1421 37.6452 16.0456 37.5165L16.0243 37.488L15.9991 37.4629C15.788 37.2517 15.6601 37.1228 15.5803 37.0231C15.5588 36.9962 15.5457 36.9772 15.538 36.9651V36.7992L15.3915 36.6528C14.4664 35.7277 13.1119 35.2911 11.7975 35.2911H10.7848H10.7434L10.7026 35.2979C9.54515 35.4909 8.96595 35.4936 8.58034 35.4937C6.62983 35.3054 5.19661 33.707 5.00633 31.9173C5.00638 31.5317 5.00953 30.9525 5.20206 29.7974L5.20886 29.7566V29.7152V28.7025C5.20886 27.3557 4.75297 26.2358 3.88411 25.1497L3.86681 25.1281L3.84722 25.1085L3.84573 25.107C3.64437 24.9056 3.41078 24.672 2.98051 24.4449C2.58591 24.0588 2.23714 23.8054 1.97439 23.6145C1.96264 23.606 1.95106 23.5976 1.93966 23.5893C1.63195 23.3655 1.54631 23.2847 1.5105 23.2131L1.48182 23.1557L1.43958 23.1075C0.195763 21.686 0.171721 19.524 1.45797 17.8703L1.48836 17.8312L1.5105 17.7869C1.56047 17.687 1.68836 17.5414 1.96219 17.3174C2.14777 17.1655 2.36527 17.0045 2.62103 16.8152C2.7342 16.7314 2.85485 16.6421 2.98354 16.5456L3.01197 16.5243L3.0371 16.4991C3.24827 16.288 3.37719 16.1601 3.47691 16.0803C3.50379 16.0588 3.52281 16.0457 3.53492 16.038H3.70078L3.84722 15.8915C4.77234 14.9664 5.20886 13.6119 5.20886 12.2975V11.2848V11.2353L5.19915 11.1868C5.00948 10.2384 5.00638 9.67078 5.00633 9.28284C5.19457 7.33234 6.79302 5.89914 8.58266 5.70886C8.96826 5.70891 9.54746 5.71206 10.7026 5.90459L10.7434 5.91139H10.7848H11.7975C13.1443 5.91139 14.2642 5.4555 15.3503 4.58664L15.4361 4.51803L15.4852 4.41981C15.5711 4.24805 15.6565 4.1192 15.7578 3.96722L15.7615 3.96164C15.8509 3.82751 15.9525 3.67513 16.0551 3.48047C16.4412 3.08588 16.6946 2.73712 16.8855 2.47439C16.894 2.46264 16.9024 2.45106 16.9107 2.43966C17.1345 2.13195 17.2153 2.04631 17.2869 2.0105Z" fill="white" fill-opacity="0.4" stroke="url(#paint0_linear_188_260)"/>
<path d="M18.0759 26.475C17.6708 26.475 17.2657 26.2725 17.0632 26.07L13.0126 22.0193C12.405 21.4117 12.405 20.3991 13.0126 19.7915C13.6202 19.1839 14.6328 19.1839 15.2404 19.7915L18.2784 22.8295L25.367 15.7409C25.9746 15.1333 26.9873 15.1333 27.5949 15.7409C28.2025 16.3484 28.2025 17.3611 27.5949 17.9687L19.4936 26.07C18.886 26.2725 18.4809 26.475 18.0759 26.475Z" fill="white"/>
<defs>
<linearGradient id="paint0_linear_188_260" x1="20" y1="0.5" x2="20" y2="40.5" gradientUnits="userSpaceOnUse">
<stop stop-color="white"/>
<stop offset="1" stop-color="white" stop-opacity="0"/>
</linearGradient>
</defs>
</svg>
