<svg width="59" height="60" viewBox="0 0 59 60" fill="none" xmlns="http://www.w3.org/2000/svg">
<g id="Group 317">
<path id="Vector 21" d="M0 32.126H1.46799C2.97509 32.126 4.42135 31.5315 5.49274 30.4715L6.20816 29.7638L7.57744 31.1184C8.22993 31.7639 9.11072 32.126 10.0286 32.126V32.126C10.9464 32.126 11.8272 31.7639 12.4797 31.1184L13.849 29.7638L14.7767 30.6815C15.7121 31.6069 16.9747 32.126 18.2905 32.126V32.126C26.2528 32.126 33.1012 37.7618 34.6337 45.5751L35.1 47.9526H39.9108C41.4179 47.9526 42.8642 47.3581 43.9356 46.2982L44.651 45.5904L46.0203 46.945C46.6728 47.5905 47.5536 47.9526 48.4714 47.9526V47.9526C49.3892 47.9526 50.27 47.5905 50.9225 46.945L52.2918 45.5904L53.0072 46.2982C54.0786 47.3581 55.5249 47.9526 57.032 47.9526H58.5" stroke="#78A86E" stroke-width="3.81517"/>
<path id="Vector 22" d="M0 39.4485H1.46799C2.97509 39.4485 4.42135 38.854 5.49274 37.7941L6.20816 37.0863L7.57744 38.4409C8.22993 39.0864 9.11072 39.4485 10.0286 39.4485V39.4485C10.9464 39.4485 11.8272 39.0864 12.4797 38.4409L13.849 37.0863L14.6667 37.8952C15.6725 38.8903 17.0304 39.4485 18.4453 39.4485V39.4485C23.0267 39.4485 26.8693 42.9066 27.3504 47.4627L27.5444 49.2998C27.9032 52.6968 30.7682 55.2751 34.1841 55.2751H39.9108C41.4179 55.2751 42.8642 54.6806 43.9356 53.6207L44.651 52.9129L46.0203 54.2675C46.6728 54.913 47.5536 55.2751 48.4714 55.2751V55.2751C49.3892 55.2751 50.27 54.913 50.9225 54.2675L52.2918 52.9129L53.0072 53.6207C54.0786 54.6806 55.5249 55.2751 57.032 55.2751H58.5" stroke="#78A86E" stroke-width="3.81517"/>
<g id="Group 311">
<path id="Star 2" d="M11.4612 0L14.1104 5.01134L19.5655 3.32096L17.8568 8.71769L22.9224 11.3385L17.8568 13.9593L19.5655 19.356L14.1104 17.6656L11.4612 22.6769L8.81206 17.6656L3.35691 19.356L5.06559 13.9593L0 11.3385L5.06559 8.71769L3.35691 3.32096L8.81206 5.01134L11.4612 0Z" fill="#78A86E"/>
<ellipse id="Ellipse 23" cx="11.6998" cy="11.5746" rx="5.01428" ry="4.96058" fill="white"/>
</g>
<g id="Group 319">
<g id="Group 312">
<path id="Polygon 14" d="M42.0241 22.2047L46.7801 30.3542H37.268L42.0241 22.2047Z" fill="#78A86E"/>
<path id="Polygon 15" d="M42.0241 26.9293L46.7801 35.0788H37.268L42.0241 26.9293Z" fill="#78A86E"/>
<rect id="Rectangle 11" x="40.3525" y="34.9604" width="3.82041" height="2.36218" fill="#78A86E"/>
</g>
<g id="Group 313">
<path id="Polygon 14_2" d="M53.0075 22.2048L57.7635 30.3544H48.2514L53.0075 22.2048Z" fill="#78A86E"/>
<path id="Polygon 15_2" d="M53.0075 26.9294L57.7635 35.079H48.2514L53.0075 26.9294Z" fill="#78A86E"/>
<rect id="Rectangle 11_2" x="51.3359" y="34.9606" width="3.82041" height="2.36218" fill="#78A86E"/>
</g>
</g>
<g id="Group 320">
<g id="Group 314">
<path id="Polygon 14_3" d="M4.99258 45.8267L9.31627 53.2353H0.668878L4.99258 45.8267Z" fill="#78A86E"/>
<path id="Polygon 15_3" d="M4.99258 50.1217L9.31627 57.5304H0.668878L4.99258 50.1217Z" fill="#78A86E"/>
</g>
<g id="Group 315">
<path id="Polygon 14_4" d="M15.933 45.8267L20.2567 53.2353H11.6093L15.933 45.8267Z" fill="#78A86E"/>
<path id="Polygon 15_4" d="M15.933 50.1217L20.2567 57.5304H11.6093L15.933 50.1217Z" fill="#78A86E"/>
</g>
</g>
</g>
</svg>
