<svg width="60" height="60" viewBox="0 0 60 60" fill="none" xmlns="http://www.w3.org/2000/svg">
<path d="M0.688782 32.1259H2.15677C3.66387 32.1259 5.11013 31.5313 6.18153 30.4714L6.89694 29.7637L8.26622 31.1183C8.91871 31.7638 9.79951 32.1259 10.7173 32.1259V32.1259C11.6352 32.1259 12.516 31.7638 13.1685 31.1183L14.5378 29.7637L15.4654 30.6814C16.4008 31.6068 17.6635 32.1259 18.9793 32.1259V32.1259C26.9415 32.1259 33.79 37.7616 35.3225 45.575L35.7888 47.9525H40.5996C42.1067 47.9525 43.553 47.358 44.6244 46.298L45.3398 45.5903L46.7091 46.9449C47.3615 47.5904 48.2423 47.9525 49.1602 47.9525V47.9525C50.078 47.9525 50.9588 47.5904 51.6113 46.9449L52.9806 45.5903L53.696 46.298C54.7674 47.358 56.2137 47.9525 57.7208 47.9525H59.1887" stroke="#78A86E" stroke-width="3.81517"/>
<path d="M0.688782 39.4484H2.15677C3.66387 39.4484 5.11013 38.8539 6.18153 37.7939L6.89694 37.0862L8.26622 38.4408C8.91871 39.0863 9.79951 39.4484 10.7173 39.4484V39.4484C11.6352 39.4484 12.516 39.0863 13.1685 38.4408L14.5378 37.0862L15.3554 37.8951C16.3613 38.8902 17.7191 39.4484 19.1341 39.4484V39.4484C23.7155 39.4484 27.5581 42.9065 28.0392 47.4626L28.2332 49.2996C28.592 52.6967 31.4569 55.275 34.8728 55.275H40.5996C42.1067 55.275 43.553 54.6805 44.6244 53.6206L45.3398 52.9128L46.7091 54.2674C47.3615 54.9129 48.2423 55.275 49.1602 55.275V55.275C50.078 55.275 50.9588 54.9129 51.6113 54.2674L52.9806 52.9128L53.696 53.6206C54.7674 54.6805 56.2137 55.275 57.7208 55.275H59.1887" stroke="#78A86E" stroke-width="3.81517"/>
<path d="M12.15 -0.00012207L14.7992 5.01122L20.2543 3.32084L18.5456 8.71757L23.6112 11.3383L18.5456 13.9591L20.2543 19.3559L14.7992 17.6655L12.15 22.6768L9.50084 17.6655L4.04569 19.3559L5.75437 13.9591L0.688782 11.3383L5.75437 8.71757L4.04569 3.32084L9.50084 5.01122L12.15 -0.00012207Z" fill="#78A86E"/>
<ellipse cx="12.3888" cy="11.5745" rx="5.01428" ry="4.96058" fill="#67757D"/>
<path d="M42.7133 22.2046L47.4693 30.3541H37.9572L42.7133 22.2046Z" fill="#78A86E"/>
<path d="M42.7133 26.9292L47.4693 35.0787H37.9572L42.7133 26.9292Z" fill="#78A86E"/>
<rect x="41.0419" y="34.9603" width="3.82041" height="2.36218" fill="#78A86E"/>
<path d="M53.6969 22.2047L58.453 30.3542H48.9408L53.6969 22.2047Z" fill="#78A86E"/>
<path d="M53.6969 26.9293L58.453 35.0788H48.9408L53.6969 26.9293Z" fill="#78A86E"/>
<rect x="52.0255" y="34.9604" width="3.82041" height="2.36218" fill="#78A86E"/>
<path d="M5.68136 45.8265L10.0051 53.2352H1.35766L5.68136 45.8265Z" fill="#78A86E"/>
<path d="M5.68136 50.1216L10.0051 57.5302H1.35766L5.68136 50.1216Z" fill="#78A86E"/>
<path d="M16.6216 45.8265L20.9453 53.2352H12.2979L16.6216 45.8265Z" fill="#78A86E"/>
<path d="M16.6216 50.1216L20.9453 57.5302H12.2979L16.6216 50.1216Z" fill="#78A86E"/>
</svg>
