<svg width="0" height="0" class="hidden">
  <symbol fill="none" xmlns="http://www.w3.org/2000/svg" viewBox="0 0 8 16" id="ic_arr_hor">
    <path d="M7 1L1.55782 7.34921C1.23683 7.7237 1.23683 8.2763 1.55782 8.65079L7 15" stroke="currentColor" stroke-width="2" stroke-linecap="round"></path>
  </symbol>
  <symbol xmlns="http://www.w3.org/2000/svg" viewBox="0 0 11 9" id="ic_arrow_hor">
    <path d="M10.3536 4.85355C10.5488 4.65829 10.5488 4.34171 10.3536 4.14645L7.17157 0.964466C6.97631 0.769204 6.65973 0.769204 6.46447 0.964466C6.2692 1.15973 6.2692 1.47631 6.46447 1.67157L9.29289 4.5L6.46447 7.32843C6.2692 7.52369 6.2692 7.84027 6.46447 8.03553C6.65973 8.2308 6.97631 8.2308 7.17157 8.03553L10.3536 4.85355ZM0 5H10V4H0V5Z" fill="currentColor"></path>
  </symbol>
  <symbol fill="none" xmlns="http://www.w3.org/2000/svg" viewBox="0 0 12 11" id="ic_check">
    <path d="M0.5 5L3.55556 9.5L11.5 0.5" stroke="currentColor"></path>
  </symbol>
  <symbol fill="none" xmlns="http://www.w3.org/2000/svg" viewBox="0 0 30 29" id="ic_close">
    <path d="M22.071 7.57104L7.92891 21.7132" stroke="currentColor" stroke-width="2" stroke-linecap="round"></path>
    <path d="M22.071 21.7133L7.92891 7.57112" stroke="currentColor" stroke-width="2" stroke-linecap="round"></path>
  </symbol>
  <symbol xmlns="http://www.w3.org/2000/svg" viewBox="0 0 19 12" id="ic_eye">
    <path d="M9.33325 0.63501C5.89407 0.63501 2.77523 2.51662 0.473852 5.57285C0.28606 5.82324 0.28606 6.17305 0.473852 6.42344C2.77523 9.48336 5.89407 11.365 9.33325 11.365C12.7724 11.365 15.8913 9.48336 18.1927 6.42713C18.3804 6.17674 18.3804 5.82693 18.1927 5.57654C15.8913 2.51662 12.7724 0.63501 9.33325 0.63501ZM9.57996 9.77794C7.29699 9.92154 5.4117 8.03993 5.5553 5.75328C5.67313 3.86799 7.20125 2.33987 9.08654 2.22204C11.3695 2.07844 13.2548 3.96005 13.1112 6.2467C12.9897 8.12831 11.4616 9.65642 9.57996 9.77794ZM9.46581 8.03257C8.23595 8.1099 7.21966 7.09729 7.30067 5.86743C7.36327 4.85114 8.18808 4.03001 9.20438 3.96373C10.4342 3.8864 11.4505 4.89901 11.3695 6.12887C11.3032 7.14884 10.4784 7.96997 9.46581 8.03257Z" fill="currentColor"></path>
  </symbol>
  <symbol fill="none" xmlns="http://www.w3.org/2000/svg" viewBox="0 0 16 15" id="ic_favorite">
    <path d="M7.78369 2.33412L8.1665 2.78971L8.54931 2.33412C9.25002 1.5002 10.3051 1 11.4346 1C13.5026 1 15.1665 2.64293 15.1665 4.63796C15.1665 6.23063 14.1856 8.1775 12.0635 10.4381C10.4404 12.167 8.66956 13.51 8.16745 13.8789C8.16744 13.8789 8.16743 13.8789 8.16742 13.8789L8.16643 13.8796L8.16539 13.8788C8.16539 13.8788 8.16539 13.8788 8.16539 13.8788C7.66333 13.51 5.8925 12.167 4.2694 10.438C2.14733 8.17744 1.1665 6.2306 1.1665 4.63796C1.1665 2.64293 2.83044 1 4.89842 1C6.02792 1 7.08299 1.50017 7.78369 2.33412Z" stroke="currentColor"></path>
  </symbol>
  <symbol xmlns="http://www.w3.org/2000/svg" viewBox="0 0 16 15" id="ic_favorite_a">
    <path d="M11.1013 0.5C9.82443 0.5 8.62911 1.06531 7.83325 2.01247C7.03739 1.06527 5.84211 0.5 4.56516 0.5C2.23169 0.5 0.333252 2.35626 0.333252 4.63796C0.333252 6.42462 1.42281 8.49118 3.5716 10.7802C5.22526 12.5418 7.02418 13.9057 7.53612 14.2818L7.83315 14.5L8.13019 14.2818C8.64213 13.9057 10.4411 12.5418 12.0948 10.7803C14.2437 8.49124 15.3333 6.42465 15.3333 4.63796C15.3333 2.35626 13.4348 0.5 11.1013 0.5Z" fill="currentColor"></path>
  </symbol>
  <symbol xmlns="http://www.w3.org/2000/svg" viewBox="0 0 23 22" id="ic_header_btn1">
    <rect x="0.5" width="9" height="9" rx="2" fill="currentColor"></rect>
    <rect x="13.5" width="9" height="9" rx="2" fill="currentColor"></rect>
    <rect x="0.5" y="13" width="9" height="9" rx="2" fill="currentColor"></rect>
    <rect x="13.5" y="13" width="9" height="9" rx="2" fill="currentColor"></rect>
  </symbol>
  <symbol xmlns="http://www.w3.org/2000/svg" viewBox="0 0 12 14" id="ic_highway">
    <path d="M2.10864 13.4987V0.507363C2.10864 0.504875 2.10897 0.502463 2.10902 0.5H1.46138C1.16855 0.5 0.931152 0.737402 0.931152 1.03023V12.9698C0.931152 13.2626 1.16855 13.5 1.46138 13.5H2.10872C2.10872 13.4996 2.10864 13.4992 2.10864 13.4987ZM9.08134 0.5H2.91672C2.91678 0.502463 2.91711 0.504875 2.91711 0.507363V13.4987C2.91711 13.4992 2.91705 13.4996 2.91703 13.5H9.08103C9.08103 13.4996 9.08096 13.4992 9.08096 13.4987V0.507363C9.08096 0.504875 9.08129 0.502463 9.08134 0.5ZM6.37099 11.9393C6.37099 12.1625 6.19001 12.3435 5.96677 12.3435C5.74354 12.3435 5.56255 12.1625 5.56255 11.9393V10.7726C5.56255 10.5494 5.74354 10.3684 5.96677 10.3684C6.19001 10.3684 6.37099 10.5494 6.37099 10.7726V11.9393ZM6.37099 9.0023C6.37099 9.22554 6.19001 9.40652 5.96677 9.40652C5.74354 9.40652 5.56255 9.22554 5.56255 9.0023V7.83566C5.56255 7.61242 5.74354 7.43144 5.96677 7.43144C6.19001 7.43144 6.37099 7.61242 6.37099 7.83566V9.0023ZM6.37099 6.06537C6.37099 6.28861 6.19001 6.46959 5.96677 6.46959C5.74354 6.46959 5.56255 6.28861 5.56255 6.06537V4.89872C5.56255 4.67549 5.74354 4.4945 5.96677 4.4945C6.19001 4.4945 6.37099 4.67549 6.37099 4.89872V6.06537ZM6.37099 3.12841C6.37099 3.35165 6.19001 3.53263 5.96677 3.53263C5.74354 3.53263 5.56255 3.35165 5.56255 3.12841V1.96176C5.56255 1.73853 5.74354 1.55754 5.96677 1.55754C6.19001 1.55754 6.37099 1.73853 6.37099 1.96176V3.12841ZM9.88904 0.5C9.88909 0.502463 9.88942 0.504875 9.88942 0.507363V13.4987C9.88942 13.4992 9.88937 13.4996 9.88935 13.5H10.5383C10.8311 13.5 11.0685 13.2626 11.0685 12.9698V1.03023C11.0685 0.737402 10.8311 0.5 10.5383 0.5H9.88904Z" fill="currentColor"></path>
  </symbol>
  <symbol xmlns="http://www.w3.org/2000/svg" viewBox="0 0 18 18" id="ic_home">
    <path d="M17.6977 8.49244L9.62167 1.13364C9.26719 0.810586 8.73264 0.810621 8.3783 1.1336L0.302274 8.49248C0.0183179 8.75123 -0.0754787 9.1499 0.0632474 9.50811C0.202009 9.86631 0.539859 10.0977 0.92401 10.0977H2.21389V17.4707C2.21389 17.763 2.45091 18.0001 2.74323 18.0001H7.16988C7.46221 18.0001 7.69923 17.7631 7.69923 17.4707V12.9941H10.3009V17.4708C10.3009 17.7631 10.5379 18.0001 10.8302 18.0001H15.2566C15.549 18.0001 15.786 17.7631 15.786 17.4708V10.0977H17.0761C17.4602 10.0977 17.7981 9.86628 17.9369 9.50811C18.0754 9.14986 17.9816 8.75123 17.6977 8.49244ZM15.6477 1.94796H12.0928L16.1771 5.66171V2.47727C16.1771 2.18494 15.9401 1.94796 15.6477 1.94796Z" fill="currentColor"></path>
  </symbol>
  <symbol xmlns="http://www.w3.org/2000/svg" viewBox="0 0 15 20" id="ic_location">
    <path d="M7.24325 0C3.2493 0 0 3.2493 0 7.24321C0 12.1998 6.482 19.4763 6.75798 19.7837C7.01719 20.0724 7.46977 20.0719 7.72852 19.7837C8.0045 19.4763 14.4865 12.1998 14.4865 7.24321C14.4864 3.2493 11.2372 0 7.24325 0ZM7.24325 10.8875C5.23379 10.8875 3.59903 9.25267 3.59903 7.24321C3.59903 5.23376 5.23383 3.59899 7.24325 3.59899C9.25267 3.59899 10.8874 5.2338 10.8874 7.24325C10.8874 9.25271 9.25267 10.8875 7.24325 10.8875Z" fill="currentColor"></path>
  </symbol>
  <symbol xmlns="http://www.w3.org/2000/svg" viewBox="0 0 16 20" id="ic_pdf">
    <path d="M4.54723 12.4785C4.37703 12.4785 4.26233 12.4952 4.20312 12.5118V13.6015C4.27343 13.6181 4.3613 13.6227 4.48247 13.6227C4.92555 13.6227 5.19843 13.3989 5.19843 13.0215C5.19843 12.682 4.96348 12.4785 4.54723 12.4785ZM7.7727 12.4896C7.5877 12.4896 7.46745 12.5063 7.39623 12.5229V14.9372C7.46745 14.9538 7.58215 14.9538 7.68575 14.9538C8.44148 14.9594 8.93358 14.5431 8.93358 13.6625C8.93913 12.8948 8.4905 12.4896 7.7727 12.4896Z" fill="currentColor"></path>
    <path d="M9.85011 0.75H2.4501C1.95945 0.75 1.48889 0.94491 1.14195 1.29185C0.795008 1.63879 0.600098 2.10935 0.600098 2.6V17.4C0.600098 17.8906 0.795008 18.3612 1.14195 18.7081C1.48889 19.0551 1.95945 19.25 2.4501 19.25H13.5501C14.0408 19.25 14.5113 19.0551 14.8583 18.7081C15.2052 18.3612 15.4001 17.8906 15.4001 17.4V6.3L9.85011 0.75ZM5.68575 13.8758C5.39993 14.144 4.97813 14.2643 4.48695 14.2643C4.39171 14.2653 4.29652 14.2597 4.20205 14.2476V15.5666H3.3751V11.9258C3.74788 11.8703 4.12528 11.8444 4.50268 11.85C5.0179 11.85 5.3842 11.9481 5.63118 12.1451C5.86613 12.3319 6.02523 12.6381 6.02523 12.9988C6.0243 13.3615 5.90405 13.6676 5.68575 13.8758ZM9.20723 15.1291C8.81873 15.452 8.22765 15.6055 7.50523 15.6055C7.07233 15.6055 6.76615 15.5778 6.55803 15.55V11.9268C6.93136 11.8723 7.30833 11.8466 7.6856 11.85C8.38583 11.85 8.84093 11.9758 9.19613 12.2441C9.58001 12.5289 9.82051 12.9831 9.82051 13.6353C9.82051 14.341 9.56243 14.8285 9.20723 15.1291ZM12.6251 12.5623H11.208V13.4049H12.5326V14.0839H11.208V15.5676H10.37V11.8777H12.6251V12.5623ZM9.85011 7.225H8.92511V2.6L13.5501 7.225H9.85011Z" fill="currentColor"></path>
  </symbol>
  <symbol xmlns="http://www.w3.org/2000/svg" viewBox="0 0 12 12" id="ic_phone">
    <path fill-rule="evenodd" clip-rule="evenodd" d="M11.7803 10.5552C11.7006 10.6347 11.6046 10.7362 11.5027 10.8437C11.2484 11.1135 10.9308 11.449 10.7318 11.585C9.68439 12.3007 8.28317 11.9583 7.29202 11.5453C5.98453 11.0005 4.56102 9.99625 3.28287 8.71786C2.00352 7.43938 0.999457 6.01536 0.454677 4.70854C0.042196 3.71712 -0.300984 2.31555 0.414835 1.26789C0.550766 1.06867 0.886962 0.75153 1.15643 0.496785C1.26424 0.395206 1.36502 0.299229 1.4447 0.219799C1.58617 0.0790262 1.77762 0 1.97719 0C2.17676 0 2.36821 0.0790262 2.50968 0.219799L4.43681 2.14647C4.5775 2.28794 4.65647 2.47935 4.65647 2.67887C4.65647 2.87839 4.5775 3.0698 4.43681 3.21127L3.91183 3.73522C3.73651 3.90927 3.62207 4.13528 3.58555 4.37962C3.54902 4.62396 3.59237 4.87356 3.70913 5.09128C4.4312 6.45419 5.54595 7.56881 6.90891 8.29069C7.12656 8.40742 7.3761 8.45071 7.62036 8.41412C7.86461 8.37754 8.09051 8.26303 8.26442 8.08765L8.78811 7.56367C8.92958 7.4229 9.12103 7.34387 9.3206 7.34387C9.52017 7.34387 9.71161 7.4229 9.85308 7.56367L11.7803 9.49067C11.921 9.63209 12 9.82347 12 10.023C12 10.2224 11.921 10.4138 11.7803 10.5552Z" fill="currentColor"></path>
  </symbol>
  <symbol xmlns="http://www.w3.org/2000/svg" viewBox="0 0 21 16" id="ic_telegram">
    <path fill-rule="evenodd" clip-rule="evenodd" d="M20.4872 1.38876C20.211 4.19975 19.0111 11.0235 18.402 14.1723C18.1442 15.5059 17.6348 15.952 17.1438 15.9949C16.0743 16.0898 15.2626 15.3118 14.2269 14.6569C12.6066 13.6315 11.6906 12.9928 10.1178 11.9911C8.29955 10.8338 9.47797 10.1981 10.5137 9.15936C10.7853 8.88671 15.4959 4.74802 15.5879 4.37312C15.5987 4.32571 15.6109 4.15085 15.502 4.05898C15.3931 3.96711 15.235 3.99823 15.1215 4.02342C14.9588 4.05898 12.3703 5.7112 7.35437 8.98007C6.61939 9.46758 5.95347 9.70467 5.35659 9.69282C4.69987 9.67948 3.43553 9.33422 2.49494 9.03786C1.34262 8.67629 0.425049 8.48366 0.504837 7.87019C0.546266 7.55012 1.00198 7.22264 1.87352 6.88775C5.44267 5.37606 9.02198 3.88681 12.6112 2.4201C17.7253 0.366313 18.7871 0.009197 19.4807 -0.00265747C20.3491 -0.0145119 20.5578 0.677494 20.4872 1.38876Z" fill="currentColor"></path>
  </symbol>
  <symbol xmlns="http://www.w3.org/2000/svg" viewBox="0 0 18 18" id="ic_time">
    <path d="M9 0C4.03725 0 0 4.03725 0 9C0 13.9628 4.03725 18 9 18C13.9628 18 18 13.9628 18 9C18 4.03725 13.9628 0 9 0ZM13.2803 13.6553C13.2108 13.7251 13.1281 13.7806 13.0371 13.8184C12.9461 13.8563 12.8486 13.8758 12.75 13.8758C12.6514 13.8758 12.5539 13.8563 12.4629 13.8184C12.3719 13.7806 12.2892 13.7251 12.2197 13.6553L8.46975 9.90525C8.39997 9.83572 8.34463 9.75308 8.30691 9.66207C8.2692 9.57107 8.24986 9.47351 8.25 9.375V4.5C8.25 4.30109 8.32902 4.11032 8.46967 3.96967C8.61032 3.82902 8.80109 3.75 9 3.75C9.19891 3.75 9.38968 3.82902 9.53033 3.96967C9.67098 4.11032 9.75 4.30109 9.75 4.5V9.0645L13.2803 12.5947C13.35 12.6643 13.4053 12.747 13.443 12.838C13.4807 12.929 13.5002 13.0265 13.5002 13.125C13.5002 13.2235 13.4807 13.321 13.443 13.412C13.4053 13.503 13.35 13.5857 13.2803 13.6553Z" fill="currentColor"></path>
  </symbol>
  <symbol xmlns="http://www.w3.org/2000/svg" viewBox="0 0 21 20" id="ic_whatsapp">
    <path d="M10.5025 0H10.4975C4.98375 0 0.5 4.48499 0.5 9.99999C0.5 12.1875 1.205 14.215 2.40375 15.8612L1.1575 19.5762L5.00125 18.3475C6.58249 19.395 8.46874 20 10.5025 20C16.0162 20 20.5 15.5137 20.5 9.99999C20.5 4.48625 16.0162 0 10.5025 0Z" fill="currentColor"></path>
    <path d="M16.2088 13.852C15.9703 14.5024 15.0237 15.0419 14.2687 15.1994C13.7521 15.3056 13.0774 15.3903 10.806 14.481C7.90073 13.3186 6.02977 10.4675 5.88395 10.2825C5.7443 10.0975 4.70996 8.77283 4.70996 7.40279C4.70996 6.03275 5.43042 5.36563 5.72082 5.07921C5.95933 4.8441 6.35354 4.73669 6.73169 4.73669C6.85403 4.73669 6.96401 4.74266 7.06287 4.74744C7.35328 4.75937 7.4991 4.77608 7.69065 5.21884C7.92915 5.77377 8.50996 7.14382 8.57917 7.28464C8.6496 7.42547 8.72004 7.61641 8.62118 7.80139C8.5285 7.99234 8.44694 8.07707 8.30112 8.23938C8.1553 8.40168 8.01689 8.5258 7.87107 8.70004C7.7376 8.8516 7.58684 9.01391 7.75491 9.29436C7.92297 9.56884 8.50378 10.4842 9.35894 11.2193C10.4625 12.1681 11.3572 12.4712 11.6772 12.6001C11.9158 12.6956 12.2 12.6729 12.3742 12.4939C12.5954 12.2636 12.8685 11.8817 13.1466 11.5058C13.3443 11.236 13.5939 11.2026 13.8559 11.2981C14.1228 11.3876 15.5353 12.0619 15.8257 12.2015C16.1161 12.3423 16.3077 12.4092 16.3781 12.5273C16.4473 12.6455 16.4473 13.2004 16.2088 13.852Z" fill="var(--color2)"></path>
  </symbol>
</svg>